<?xml version="1.0" encoding="UTF-8" standalone="no"?>
<!-- Created with Inkscape (http://www.inkscape.org/) -->

<svg
     xmlns:dc="http://purl.org/dc/elements/1.1/"
     xmlns:cc="http://creativecommons.org/ns#"
     xmlns:rdf="http://www.w3.org/1999/02/22-rdf-syntax-ns#"
     xmlns:svg="http://www.w3.org/2000/svg"
     xmlns="http://www.w3.org/2000/svg"
     xmlns:xlink="http://www.w3.org/1999/xlink"
     xmlns:sodipodi="http://sodipodi.sourceforge.net/DTD/sodipodi-0.dtd"
     xmlns:inkscape="http://www.inkscape.org/namespaces/inkscape"
     sodipodi:docname="binary-banner.svg"
     inkscape:version="0.92.2 5c3e80d, 2017-08-06"
     version="1.1"
     id="svg2"
     viewBox="0 0 1280 399.8"
     height="426.7"
     width="1365"
     inkscape:export-filename="/Users/dusadrian/Lucru/blogdown/binary-banner.png"
     inkscape:export-xdpi="95.95"
     inkscape:export-ydpi="95.95">
    <sodipodi:namedview
         inkscape:snap-global="false"
         inkscape:window-maximized="0"
         inkscape:window-y="0"
         inkscape:window-x="0"
         inkscape:window-height="841"
         inkscape:window-width="1864"
         units="px"
         showborder="false"
         fit-margin-bottom="0"
         fit-margin-right="0"
         fit-margin-left="0"
         fit-margin-top="0"
         showgrid="false"
         inkscape:current-layer="layer1"
         inkscape:document-units="px"
         inkscape:cy="-277.8"
         inkscape:cx="642.5"
         inkscape:zoom="0.3334"
         inkscape:pageshadow="2"
         inkscape:pageopacity="0.0"
         borderopacity="1.0"
         bordercolor="#666666"
         pagecolor="#ffffff"
         id="base" />
    <defs
         id="defs4">
        <linearGradient
             inkscape:collect="always"
             id="linearGradient12410">
            <stop
                 style="stop-color:#193f57;stop-opacity:1"
                 offset="0"
                 id="stop12412" />
            <stop
                 style="stop-color:#3aa1d6;stop-opacity:1"
                 offset="1"
                 id="stop12414" />
        </linearGradient>
        <linearGradient
             id="linearGradient12392"
             inkscape:collect="always">
            <stop
                 id="stop12394"
                 offset="0"
                 style="stop-color:#98c4d1;stop-opacity:1" />
            <stop
                 id="stop12396"
                 offset="1"
                 style="stop-color:#ffffff;stop-opacity:1" />
        </linearGradient>
        <linearGradient
             gradientUnits="userSpaceOnUse"
             y2="200"
             x2="1280"
             y1="200"
             x1="0"
             id="linearGradient4244"
             xlink:href="#linearGradient12410"
             inkscape:collect="always"
             gradientTransform="matrix(1.878,0,0,1.873,0.9993,85.38)" />
        <linearGradient
             gradientUnits="userSpaceOnUse"
             y2="200"
             x2="1280"
             y1="200"
             x1="-0.5"
             id="linearGradient4252"
             xlink:href="#linearGradient12410"
             inkscape:collect="always"
             gradientTransform="matrix(1.878,0,0,1.873,0.9993,85.38)" />
        <linearGradient
             inkscape:collect="always"
             xlink:href="#linearGradient12392"
             id="linearGradient13623"
             x1="28"
             y1="1123"
             x2="1226"
             y2="1123"
             gradientUnits="userSpaceOnUse"
             gradientTransform="translate(31,-866.8)" />
        <clipPath
             clipPathUnits="userSpaceOnUse"
             id="clipPath13628">
            <rect
                 style="opacity:1;fill:url(#linearGradient13632);fill-opacity:1;fill-rule:evenodd;stroke:url(#linearGradient13634);stroke-width:1;stroke-linecap:round;stroke-linejoin:miter;stroke-miterlimit:4;stroke-dasharray:none;stroke-dashoffset:0;stroke-opacity:1"
                 id="rect13630"
                 width="1280"
                 height="400"
                 x="0"
                 y="0"
                 inkscape:export-filename="/Users/dusadrian/binary-banner.png"
                 inkscape:export-xdpi="90"
                 inkscape:export-ydpi="90" />
        </clipPath>
        <linearGradient
             inkscape:collect="always"
             xlink:href="#linearGradient12410"
             id="linearGradient13632"
             gradientUnits="userSpaceOnUse"
             x1="-0.5"
             y1="200"
             x2="1280"
             y2="200" />
        <linearGradient
             inkscape:collect="always"
             xlink:href="#linearGradient12410"
             id="linearGradient13634"
             gradientUnits="userSpaceOnUse"
             x1="0"
             y1="200"
             x2="1280"
             y2="200" />
    </defs>
    <metadata
         id="metadata7">
        <rdf:RDF>
            <cc:Work
                 rdf:about="">
                <dc:format>image/svg+xml</dc:format>
                <dc:type
                     rdf:resource="http://purl.org/dc/dcmitype/StillImage" />
                <dc:title></dc:title>
            </cc:Work>
        </rdf:RDF>
    </metadata>
    <g
         id="layer1"
         inkscape:groupmode="layer"
         inkscape:label="Layer 1"
         transform="translate(0,0.0926)">
        <text
             id="text4338"
             y="1548"
             x="-205.8"
             style="color:#000000;font-style:normal;font-variant:normal;font-weight:normal;font-stretch:normal;line-height:0%;font-family:Arial;-inkscape-font-specification:Arial;text-indent:0;text-align:start;text-decoration:none;text-decoration-line:none;letter-spacing:0px;word-spacing:0px;text-transform:none;writing-mode:lr-tb;direction:ltr;baseline-shift:baseline;text-anchor:start;display:inline;overflow:visible;visibility:visible;fill:#000000;fill-opacity:1;fill-rule:nonzero;stroke:none;stroke-width:1px;stroke-linecap:butt;stroke-linejoin:miter;stroke-opacity:1;marker:none;enable-background:accumulate"
             xml:space="preserve"><tspan
                 style="font-style:normal;font-variant:normal;font-weight:normal;font-stretch:normal;font-size:43.75px;line-height:1.25;font-family:Menlo;-inkscape-font-specification:Menlo;text-align:start;text-anchor:start"
                 id="tspan4362"
                 y="1548"
                 x="-205.8"
                 sodipodi:role="line">  1 0 1 0 1 1 1 0 0 1 1       1 1 0 1 0 0 0     1 1 0 1 1</tspan><tspan
                 style="font-style:normal;font-variant:normal;font-weight:normal;font-stretch:normal;font-size:43.75px;line-height:1.25;font-family:Menlo;-inkscape-font-specification:Menlo;text-align:start;text-anchor:start"
                 y="1603"
                 x="-205.8"
                 sodipodi:role="line"
                 id="tspan8215">            1 0 0   0 1 0     0 1 1   1 1 0 0 0 0 0     0</tspan><tspan
                 style="font-style:normal;font-variant:normal;font-weight:normal;font-stretch:normal;font-size:43.75px;line-height:1.25;font-family:Menlo;-inkscape-font-specification:Menlo;text-align:start;text-anchor:start"
                 y="1657"
                 x="-205.8"
                 sodipodi:role="line"
                 id="tspan8217">              0 1 1 0 0 1   0 0 0 0 1 1 1 0 0 1 1 0 1 1 1</tspan><tspan
                 style="font-style:normal;font-variant:normal;font-weight:normal;font-stretch:normal;font-size:43.75px;line-height:1.25;font-family:Menlo;-inkscape-font-specification:Menlo;text-align:start;text-anchor:start"
                 y="1712"
                 x="-205.8"
                 sodipodi:role="line"
                 id="tspan8219">              1 1 1 1   0 1 1 1 0 1              </tspan><tspan
                 style="font-style:normal;font-variant:normal;font-weight:normal;font-stretch:normal;font-size:43.75px;line-height:1.25;font-family:Menlo;-inkscape-font-specification:Menlo;text-align:start;text-anchor:start"
                 y="1767"
                 x="-205.8"
                 sodipodi:role="line"
                 id="tspan8221">                  0 0 1 1 0 1 1 1     0       0 1     0 </tspan><tspan
                 style="font-style:normal;font-variant:normal;font-weight:normal;font-stretch:normal;font-size:43.75px;line-height:1.25;font-family:Menlo;-inkscape-font-specification:Menlo;text-align:start;text-anchor:start"
                 y="1821"
                 x="-205.8"
                 sodipodi:role="line"
                 id="tspan8223">                  1 0 1 0   1 0 0   0   0   1       1   1</tspan><tspan
                 style="font-style:normal;font-variant:normal;font-weight:normal;font-stretch:normal;font-size:43.75px;line-height:1.25;font-family:Menlo;-inkscape-font-specification:Menlo;text-align:start;text-anchor:start"
                 y="1876"
                 x="-205.8"
                 sodipodi:role="line"
                 id="tspan8225">        1 1 0 1 0 0 1 0       1 1   0 1 0   1       0 1 0</tspan><tspan
                 style="font-style:normal;font-variant:normal;font-weight:normal;font-stretch:normal;font-size:43.75px;line-height:1.25;font-family:Menlo;-inkscape-font-specification:Menlo;text-align:start;text-anchor:start"
                 y="1931"
                 x="-205.8"
                 sodipodi:role="line"
                 id="tspan8227">    0 1 0 1       0 1 1 0   0 1 0     0 1     0 1   1   1</tspan><tspan
                 style="font-style:normal;font-variant:normal;font-weight:normal;font-stretch:normal;font-size:43.75px;line-height:1.25;font-family:Menlo;-inkscape-font-specification:Menlo;text-align:start;text-anchor:start"
                 y="1986"
                 x="-205.8"
                 sodipodi:role="line"
                 id="tspan8229">        1 0       1 1 1 1 0 0 1 1 1          </tspan><tspan
                 style="font-style:normal;font-variant:normal;font-weight:normal;font-stretch:normal;font-size:43.75px;line-height:1.25;font-family:Menlo;-inkscape-font-specification:Menlo;text-align:start;text-anchor:start"
                 y="2040"
                 x="-205.8"
                 sodipodi:role="line"
                 id="tspan8231">    0 0 1 0 1 0 0 0 1 1 0 1 1   0 0 1 1 1 0 0 1 1 1 1 0 1</tspan><tspan
                 style="font-style:normal;font-variant:normal;font-weight:normal;font-stretch:normal;font-size:43.75px;line-height:1.25;font-family:Menlo;-inkscape-font-specification:Menlo;text-align:start;text-anchor:start"
                 y="2095"
                 x="-205.8"
                 sodipodi:role="line"
                 id="tspan8233">    0 0 0 0 1   1 0   1 1 1 0 1   0 0 0 0 1   0 0 1   0 0</tspan><tspan
                 style="font-style:normal;font-variant:normal;font-weight:normal;font-stretch:normal;font-size:43.75px;line-height:1.25;font-family:Menlo;-inkscape-font-specification:Menlo;text-align:start;text-anchor:start"
                 y="2150"
                 x="-205.8"
                 sodipodi:role="line"
                 id="tspan8235">1 1 1 1 0 1 1 1 0 0 0 1 0 1 1 0 1 0 0 0 1 1 1 0 0 1 0 0 1</tspan></text>
        <path
             sodipodi:nodetypes="ccccc"
             inkscape:connector-curvature="0"
             id="path4364"
             d="M 1224,905.8 1226,1237 28.6,1394 28.09,848.7 Z"
             style="fill:none;fill-rule:evenodd;stroke:#000000;stroke-width:0.9999px;stroke-linecap:butt;stroke-linejoin:miter;stroke-opacity:1" />
        <rect
             inkscape:export-ydpi="95.95"
             inkscape:export-xdpi="95.95"
             inkscape:export-filename="/Users/dusadrian/binary-banner.png"
             y="85.38"
             x="0.9981"
             height="749.3"
             width="2401"
             id="rect4136"
             style="opacity:1;fill:url(#linearGradient4252);fill-opacity:1;fill-rule:evenodd;stroke:url(#linearGradient4244);stroke-width:0.9978;stroke-linecap:round;stroke-linejoin:miter;stroke-miterlimit:4;stroke-dasharray:none;stroke-dashoffset:0;stroke-opacity:1" />
        <path
             style="color:#000000;font-style:normal;font-variant:normal;font-weight:normal;font-stretch:normal;font-size:43.75px;line-height:125%;font-family:Menlo;-inkscape-font-specification:Menlo;text-indent:0;text-align:start;text-decoration:none;text-decoration-line:none;letter-spacing:0px;word-spacing:0px;text-transform:none;writing-mode:lr-tb;direction:ltr;baseline-shift:baseline;text-anchor:start;visibility:visible;fill:url(#linearGradient13623);fill-opacity:1;fill-rule:nonzero;stroke:none;stroke-width:0.5326px;stroke-linecap:butt;stroke-linejoin:miter;stroke-opacity:1;marker:none"
             d="M 136.5,-13.8 126.4,-11.8 V -7.8 L 136.6,-9.8 V 10.2 L 128.2,9.2 V 12.2 L 150.2,13.2 V 10.2 H 142 V -13.8 Z M 199,-11.1 C 196.3,-11.3 194.2,-10.3 192.6,-8.8 190.5,-6.8 189.5,-2.8 189.5,2.2 189.5,6.2 190.6,10.2 192.7,12.2 194.8,14.2 197.8,15.2 201.9,15.2 206,16.2 209.1,15.2 211.1,13.2 213.2,10.2 214.3,7.2 214.2,3.2 214.2,-1.8 213.2,-5.8 211.1,-7.8 209,-9.8 206,-10.8 201.9,-10.8 200.9,-11.1 199.9,-11.1 199,-11.1 Z M 201.9,-8.8 C 204.1,-8.8 205.8,-7.8 207.1,-5.8 L 195.2,6.2 C 194.9,5.2 194.7,4.2 194.7,2.2 194.7,-1.8 195.3,-3.8 196.5,-5.8 197.7,-7.8 199.5,-8.8 201.9,-8.8 Z M 262.8,-7.8 253.6,-5.8 V -1.8 L 262.8,-4.8 262.9,15.2 255.1,14.2 V 17.2 H 275.3 V 15.2 H 267.8 L 267.7,-7.8 Z M 322.8,-5.8 C 319,-5.8 316.2,-4.8 314.3,-2.8 312.4,-0.8 311.4,2.2 311.4,7.2 311.4,11.2 312.4,14.2 314.3,17.2 316.2,19.2 319.1,20.2 322.8,20.2 326.6,20.2 329.4,19.2 331.3,17.2 333.2,15.2 334.1,12.2 334.1,8.2 334.1,3.2 333.2,0.2 331.2,-1.8 329.3,-3.8 326.5,-5.8 322.8,-5.8 Z M 208.6,-2.8 C 208.9,-0.8 209.1,1.2 209.1,3.2 209.1,6.2 208.5,8.2 207.3,10.2 206.1,12.2 204.3,13.2 201.9,13.2 199.5,13.2 197.7,12.2 196.4,10.2 Z M 322.8,-2.8 C 324.8,-2.8 326.4,-1.8 327.6,-0.8 L 316.7,11.2 C 316.4,10.2 316.2,9.2 316.2,7.2 316.2,4.2 316.7,1.2 317.8,0.2 318.9,-1.8 320.6,-2.8 322.8,-2.8 Z M 378.8,-1.8 370.3,0.2 V 3.2 L 378.8,1.2 378.9,19.2 H 371.8 V 21.2 L 390.3,22.2 V 20.2 L 383.4,19.2 383.3,-1.8 Z M 433.3,0.2 425.1,2.2 V 6.2 L 433.4,3.2 V 21.2 H 426.6 V 23.2 L 444.4,24.2 V 22.2 H 437.7 L 437.6,1.2 Z M 328.9,2.2 C 329.2,4.2 329.4,6.2 329.4,8.2 329.4,11.2 328.9,13.2 327.8,15.2 326.7,17.2 325,18.2 322.8,18.2 320.6,18.2 318.9,17.2 317.8,14.2 Z M 485.7,3.2 477.9,5.2 V 8.2 L 485.7,6.2 485.8,23.2 H 479.2 V 25.2 L 496.4,26.2 496.3,24.2 H 489.9 V 3.2 Z M 534.4,4.9 C 532.3,4.7 530.7,5.7 529.5,7.2 527.8,9.2 527,12.2 527,16.2 527,20.2 527.9,23.2 529.5,25.2 531.1,27.2 533.6,28.2 536.8,28.2 539.9,28.2 542.3,28.2 544,26.2 545.6,24.2 546.5,21.2 546.4,17.2 546.4,13.2 545.6,10.2 543.9,8.2 542.3,6.2 539.9,5.2 536.7,5.2 535.9,4.9 535.1,4.9 534.4,4.9 Z M 536.7,7.2 C 538.4,7.2 539.8,8.2 540.8,9.2 L 531.5,20.2 C 531.2,19.2 531.1,18.2 531.1,17.2 531.1,13.2 531.5,11.2 532.5,9.2 533.4,7.2 534.8,7.2 536.7,7.2 Z M 585.2,7.2 C 582.1,7.2 579.7,8.2 578.1,9.2 576.6,11.2 575.8,14.2 575.8,18.2 575.8,22.2 576.6,25.2 578.2,27.2 579.8,29.2 582.1,30.2 585.3,30.2 588.3,30.2 590.6,29.2 592.2,28.2 593.7,26.2 594.5,23.2 594.5,19.2 594.5,15.2 593.7,12.2 592.1,10.2 590.6,8.2 588.3,7.2 585.2,7.2 Z M 585.2,9.2 C 586.8,9.2 588.1,10.2 589.1,11.2 L 580.2,22.2 C 579.9,21.2 579.8,20.2 579.8,19.2 579.8,15.2 580.2,13.2 581,12.2 581.9,10.2 583.3,9.2 585.2,9.2 Z M 631.2,10.2 624.2,11.2 V 15.2 L 631.2,12.2 631.3,29.2 H 625.4 V 31.2 L 640.7,32.2 V 30.2 L 635,29.2 634.9,10.2 Z M 542,12.2 C 542.2,13.2 542.3,15.2 542.3,17.2 542.3,20.2 541.9,22.2 541,23.2 540.1,25.2 538.7,26.2 536.8,26.2 534.9,26.2 533.4,25.2 532.4,23.2 Z M 676.1,12.2 669.4,14.2 V 17.2 L 676.2,15.2 V 31.2 H 670.6 V 33.2 H 685.3 V 31.2 H 679.8 V 12.2 Z M 590.2,14.2 C 590.5,16.2 590.6,17.2 590.6,19.2 590.6,22.2 590.2,24.2 589.3,25.2 588.4,27.2 587.1,28.2 585.3,28.2 583.4,28.2 582.1,27.2 581.1,25.2 Z M 840.8,20.2 835,21.2 835.1,24.2 840.9,22.2 841,38.2 836.1,37.2 V 39.2 L 848.9,40.2 V 38.2 H 844.1 L 844,20.2 Z M 878.6,21.2 873,23.2 V 26.2 L 878.6,24.2 878.7,39.2 H 873.9 L 874,41.2 H 886.3 V 39.2 H 881.7 L 881.6,22.2 Z M 913.9,22.9 C 912.4,22.7 911.2,23.7 910.3,25.2 909.1,26.2 908.5,29.2 908.6,33.2 908.6,36.2 909.2,39.2 910.4,40.2 911.6,42.2 913.3,43.2 915.7,43.2 918,43.2 919.8,42.2 920.9,41.2 922.1,39.2 922.7,37.2 922.7,33.2 922.7,30.2 922.1,27.2 920.9,25.2 919.7,24.2 917.9,23.2 915.6,23.2 915,22.9 914.4,22.9 913.9,22.9 Z M 915.6,24.2 C 916.8,25.2 917.8,25.2 918.6,26.2 L 911.9,36.2 C 911.7,35.2 911.6,34.2 911.6,33.2 911.6,30.2 911.9,28.2 912.5,27.2 913.2,25.2 914.2,24.2 915.6,24.2 Z M 950.5,25.2 945.2,26.2 V 29.2 L 950.5,27.2 V 42.2 H 946.1 V 43.2 L 957.7,44.2 V 42.2 H 953.4 L 953.3,25.2 Z M 985.1,26.2 C 982.9,26.2 981.3,27.2 980.2,28.2 979.1,30.2 978.5,32.2 978.5,36.2 978.6,39.2 979.1,41.2 980.2,43.2 981.4,45.2 983,46.2 985.2,46.2 987.4,46.2 989,45.2 990.1,43.2 991.2,42.2 991.8,40.2 991.8,36.2 991.8,33.2 991.2,30.2 990,29.2 988.9,27.2 987.3,26.2 985.1,26.2 Z M 1018,27.2 C 1016,27.2 1015,28.2 1013,30.2 1012,31.2 1012,34.2 1012,37.2 1012,40.2 1012,43.2 1014,44.2 1015,46.2 1016,47.2 1018,47.2 1021,47.2 1022,46.2 1023,45.2 1024,43.2 1025,41.2 1025,38.2 1025,34.2 1024,32.2 1023,30.2 1022,28.2 1020,28.2 1018,27.2 Z M 985.1,28.2 C 986.3,28.2 987.2,28.2 987.9,30.2 L 981.6,39.2 C 981.4,38.2 981.3,37.2 981.3,36.2 981.3,33.2 981.6,31.2 982.2,30.2 982.9,28.2 983.8,28.2 985.1,28.2 Z M 919.4,29.2 C 919.6,30.2 919.8,32.2 919.8,33.2 919.8,36.2 919.4,38.2 918.8,39.2 918.1,40.2 917.1,41.2 915.6,41.2 914.3,41.2 913.3,40.2 912.6,38.2 Z M 1018,29.2 C 1019,29.2 1020,30.2 1021,31.2 L 1015,40.2 C 1015,39.2 1015,38.2 1015,37.2 1015,35.2 1015,33.2 1016,31.2 1016,30.2 1017,29.2 1018,29.2 Z M 1050,29.2 C 1048,29.2 1047,30.2 1046,31.2 1045,33.2 1044,35.2 1044,39.2 1044,42.2 1045,44.2 1046,46.2 1047,47.2 1048,48.2 1050,48.2 1052,48.2 1054,47.2 1055,46.2 1056,44.2 1057,42.2 1057,39.2 1057,36.2 1056,33.2 1055,32.2 1054,30.2 1052,29.2 1050,29.2 Z M 1050,31.2 C 1051,31.2 1052,31.2 1053,33.2 L 1047,42.2 V 39.2 C 1047,36.2 1047,34.2 1048,33.2 1048,31.2 1049,31.2 1050,31.2 Z M 988.7,32.2 C 988.9,33.2 989,35.2 989,36.2 989,39.2 988.7,40.2 988,42.2 987.5,43.2 986.5,44.2 985.2,44.2 983.9,44.2 982.9,43.2 982.2,41.2 Z M 1022,34.2 C 1022,35.2 1022,36.2 1022,38.2 1022,40.2 1022,42.2 1021,43.2 1021,44.2 1020,45.2 1018,45.2 1017,45.2 1016,44.2 1016,43.2 Z M 1141,34.2 1136,35.2 V 38.2 L 1141,36.2 V 49.2 H 1137 V 51.2 H 1147 V 50.2 L 1143,49.2 V 34.2 Z M 1054,35.2 V 39.2 C 1054,41.2 1054,43.2 1053,44.2 1053,46.2 1052,46.2 1050,46.2 1049,46.2 1048,46.2 1048,44.2 Z M 1169,35.2 1165,37.2 V 39.2 L 1169,37.2 V 51.2 L 1166,50.2 V 52.2 H 1175 V 51.2 H 1172 V 35.2 Z M 1197,36.2 C 1196,36.2 1194,37.2 1193,38.2 1192,39.2 1192,42.2 1192,45.2 1192,48.2 1192,50.2 1193,51.2 1194,53.2 1196,54.2 1197,54.2 1199,54.2 1200,53.2 1201,52.2 1202,50.2 1202,48.2 1202,45.2 1202,42.2 1202,40.2 1201,38.2 1200,37.2 1199,36.2 1197,36.2 Z M 1197,38.2 C 1198,38.2 1199,38.2 1199,39.2 L 1194,48.2 V 45.2 C 1194,43.2 1194,41.2 1195,40.2 1195,38.2 1196,38.2 1197,38.2 Z M 1224,38.2 1220,39.2 V 42.2 L 1224,40.2 V 53.2 H 1220 V 54.2 H 1229 V 53.2 H 1226 V 38.2 Z M 1250,39.2 1246,40.2 V 43.2 L 1250,41.2 V 54.2 H 1247 V 55.2 H 1255 V 54.2 H 1252 V 39.2 Z M 433.4,41.2 425.2,44.2 V 47.2 L 433.5,44.2 V 62.2 H 426.7 V 65.2 H 444.5 V 62.2 H 437.8 L 437.7,41.2 Z M 1200,42.2 V 45.2 C 1200,47.2 1200,49.2 1199,50.2 1199,52.2 1198,52.2 1197,52.2 1196,52.2 1195,51.2 1195,50.2 Z M 486.5,43.2 C 483.2,43.2 480.7,43.2 479,45.2 477.3,47.2 476.4,50.2 476.4,54.2 476.5,58.2 477.3,61.2 479,64.2 480.7,66.2 483.2,67.2 486.6,67.2 489.9,67.2 492.4,66.2 494,64.2 495.7,62.2 496.5,59.2 496.5,55.2 496.5,51.2 495.7,48.2 494,46.2 492.3,44.2 489.8,43.2 486.5,43.2 Z M 536.8,44.2 C 533.6,44.2 531.2,45.2 529.6,47.2 527.9,49.2 527.1,52.2 527.1,56.2 527.2,59.2 528,63.2 529.6,65.2 531.3,67.2 533.7,68.2 536.9,68.2 540.1,68.2 542.5,67.2 544.1,65.2 545.7,63.2 546.6,60.2 546.6,56.2 546.5,52.2 545.7,49.2 544,47.2 542.4,45.2 540,44.2 536.8,44.2 Z M 486.5,45.2 C 488.3,45.2 489.7,46.2 490.8,47.2 L 481.1,59.2 C 480.8,57.2 480.7,56.2 480.7,54.2 480.7,51.2 481.1,49.2 482.1,47.2 483.1,45.2 484.5,45.2 486.5,45.2 Z M 536.8,46.2 C 538.6,46.2 539.9,47.2 540.9,49.2 L 531.6,60.2 C 531.3,59.2 531.2,57.2 531.2,56.2 531.2,53.2 531.7,50.2 532.6,48.2 533.5,47.2 534.9,46.2 536.8,46.2 Z M 631.9,47.2 C 629,47.2 626.7,48.2 625.2,50.2 623.7,52.2 623,54.2 623,58.2 623,62.2 623.8,65.2 625.3,67.2 626.8,69.2 629.1,70.2 632,70.2 635,70.2 637.2,69.2 638.7,68.2 640.2,65.2 640.9,62.2 640.9,59.2 640.9,55.2 640.1,52.2 638.6,50.2 637.1,48.2 634.9,47.2 631.9,47.2 Z M 631.9,49.2 C 633.5,49.2 634.8,50.2 635.8,52.2 L 627.1,63.2 C 626.9,61.2 626.7,60.2 626.7,58.2 626.7,56.2 627.2,53.2 628,51.2 628.9,50.2 630.2,49.2 631.9,49.2 Z M 676.3,49.2 669.6,51.2 V 54.2 L 676.3,51.2 V 68.2 H 670.7 V 71.2 H 685.5 V 68.2 H 680 L 679.9,49.2 Z M 492,50.2 C 492.2,52.2 492.4,53.2 492.4,55.2 492.4,58.2 491.9,60.2 490.9,62.2 490,63.2 488.5,64.2 486.6,64.2 484.6,64.2 483.1,63.2 482.1,62.2 Z M 720.3,50.2 C 717.5,50.2 715.4,51.2 714,53.2 712.6,54.2 711.9,57.2 711.9,61.2 711.9,64.2 712.6,67.2 714.1,69.2 715.5,71.2 717.6,72.2 720.4,72.2 723.1,72.2 725.2,72.2 726.6,70.2 728,68.2 728.6,65.2 728.6,61.2 728.6,58.2 727.9,55.2 726.5,53.2 725.1,51.2 723,50.2 720.3,50.2 Z M 542.1,52.2 C 542.3,53.2 542.5,55.2 542.5,56.2 542.5,59.2 542,62.2 541.1,63.2 540.2,65.2 538.8,65.2 536.9,65.2 535,65.2 533.5,64.2 532.5,63.2 Z M 720.3,52.2 C 721.7,52.2 722.9,53.2 723.8,54.2 L 715.8,65.2 C 715.6,63.2 715.5,62.2 715.5,61.2 715.4,58.2 715.8,56.2 716.6,54.2 717.5,53.2 718.7,52.2 720.3,52.2 Z M 636.8,54.2 C 637.1,56.2 637.2,57.2 637.2,59.2 637.2,62.2 636.8,64.2 635.9,66.2 635,67.2 633.7,68.2 632,68.2 630.3,67.2 628.9,67.2 628,65.2 Z M 841.5,54.2 C 839.1,54.2 837.2,55.2 835.9,56.2 834.7,58.2 834,61.2 834,64.2 834.1,67.2 834.7,70.2 836,72.2 837.3,74.2 839.1,75.2 841.6,75.2 844.1,75.2 846,74.2 847.2,73.2 848.5,71.2 849.1,68.2 849.1,64.2 849.1,61.2 848.4,59.2 847.1,57.2 845.9,55.2 844,54.2 841.5,54.2 Z M 878.8,55.2 873.1,58.2 V 60.2 L 878.8,58.2 V 73.2 H 874.1 V 75.2 L 886.5,76.2 V 73.2 H 881.9 L 881.8,55.2 Z M 841.5,56.2 C 842.9,56.2 843.9,57.2 844.8,58.2 L 837.5,68.2 C 837.3,67.2 837.2,65.2 837.2,64.2 837.2,62.2 837.5,59.2 838.3,58.2 839,57.2 840.1,56.2 841.5,56.2 Z M 915.2,56.2 909.8,59.2 V 61.2 L 915.3,59.2 915.4,74.2 H 910.8 V 76.2 H 922.8 V 74.2 H 918.2 V 57.2 Z M 724.7,57.2 C 725,58.2 725.2,60.2 725.2,61.2 725.2,64.2 724.8,66.2 724,68.2 723.2,69.2 722,70.2 720.4,70.2 718.7,70.2 717.5,69.2 716.6,68.2 Z M 984.8,59.2 979.7,61.2 V 63.2 L 984.8,61.2 984.9,75.2 H 980.6 V 78.2 H 991.9 L 991.8,76.2 H 987.6 V 59.2 Z M 1018,60.2 1013,62.2 V 64.2 L 1018,62.2 V 76.2 H 1014 V 79.2 H 1025 V 76.2 H 1021 V 60.2 Z M 845.6,61.2 C 845.8,62.2 845.9,63.2 845.9,64.2 846,67.2 845.6,69.2 844.9,71.2 844.2,72.2 843.1,73.2 841.6,73.2 840.2,73.2 839,72.2 838.3,71.2 Z M 1051,61.2 C 1048,61.2 1047,61.2 1046,63.2 1045,65.2 1044,67.2 1044,70.2 1044,73.2 1045,76.2 1046,78.2 1047,79.2 1049,80.2 1051,80.2 1053,80.2 1054,79.2 1055,78.2 1056,76.2 1057,73.2 1057,70.2 1057,67.2 1056,65.2 1055,63.2 1054,62.2 1053,61.2 1051,61.2 Z M 1082,62.2 C 1080,62.2 1078,62.2 1077,64.2 1076,65.2 1076,68.2 1076,71.2 1076,74.2 1076,76.2 1077,78.2 1078,80.2 1080,81.2 1082,81.2 1084,81.2 1085,80.2 1086,78.2 1087,77.2 1088,74.2 1088,71.2 1088,68.2 1087,66.2 1086,64.2 1085,63.2 1084,62.2 1082,62.2 Z M 1051,63.2 C 1052,63.2 1053,63.2 1053,64.2 L 1047,73.2 V 70.2 C 1047,68.2 1047,66.2 1048,64.2 1048,63.2 1049,63.2 1051,63.2 Z M 1112,63.2 C 1110,63.2 1108,63.2 1107,65.2 1107,66.2 1106,69.2 1106,72.2 1106,75.2 1107,77.2 1107,79.2 1109,81.2 1110,81.2 1112,81.2 1114,81.2 1115,81.2 1116,79.2 1117,77.2 1118,75.2 1118,72.2 1118,69.2 1117,67.2 1116,65.2 1115,64.2 1114,63.2 1112,63.2 Z M 1082,64.2 C 1083,64.2 1084,64.2 1084,65.2 L 1079,74.2 C 1078,73.2 1078,72.2 1078,71.2 1078,69.2 1078,67.2 1079,65.2 1080,64.2 1080,64.2 1082,64.2 Z M 1141,64.2 C 1140,64.2 1138,64.2 1137,66.2 1136,67.2 1135,69.2 1135,72.2 1135,75.2 1136,78.2 1137,80.2 1138,81.2 1140,82.2 1142,82.2 1143,82.2 1145,81.2 1145,80.2 1146,78.2 1147,76.2 1147,73.2 1147,70.2 1146,68.2 1145,66.2 1145,65.2 1143,64.2 1141,64.2 Z M 1111,64.7 C 1111,64.9 1112,64.9 1112,65.2 1113,65.2 1114,65.2 1114,66.2 L 1109,75.2 V 72.2 66.2 C 1110,65.4 1111,64.7 1111,64.7 Z M 1141,65.2 C 1142,65.2 1143,66.2 1144,67.2 L 1138,76.2 V 73.2 C 1138,70.2 1138,68.2 1139,67.2 1139,66.2 1140,65.2 1141,65.2 Z M 1170,65.2 C 1168,65.2 1167,65.2 1166,67.2 1165,68.2 1164,70.2 1164,73.2 1164,76.2 1165,79.2 1166,80.2 1167,82.2 1168,83.2 1170,83.2 1171,83.2 1173,82.2 1174,81.2 1175,79.2 1175,76.2 1175,74.2 1175,71.2 1175,68.2 1174,67.2 1173,66.2 1171,65.2 1170,65.2 Z M 1170,66.2 C 1171,66.2 1172,67.2 1172,68.2 L 1167,77.2 C 1167,76.2 1166,74.2 1166,73.2 1166,71.2 1167,69.2 1167,68.2 1168,67.2 1168,66.2 1170,66.2 Z M 1054,67.2 V 70.2 C 1054,73.2 1054,75.2 1053,76.2 1053,77.2 1052,78.2 1051,78.2 1049,78.2 1048,77.2 1048,76.2 Z M 1250,67.2 C 1249,67.2 1247,68.2 1246,69.2 1246,71.2 1245,73.2 1245,76.2 1245,78.2 1246,81.2 1247,82.2 1247,84.2 1249,84.2 1250,85.2 1252,85.2 1253,84.2 1254,83.2 1255,81.2 1255,79.2 1255,76.2 1255,73.2 1255,71.2 1254,70.2 1253,68.2 1252,67.2 1250,67.2 Z M 1085,68.2 V 71.2 C 1085,74.2 1085,76.2 1084,77.2 1084,78.2 1083,78.2 1082,78.2 1081,78.2 1080,78.2 1079,77.2 Z M 1115,69.2 V 72.2 C 1115,75.2 1115,76.2 1114,77.2 1114,79.2 1113,79.2 1112,79.2 1111,79.2 1110,78.2 1109,77.2 Z M 1144,69.2 C 1145,71.2 1145,72.2 1145,73.2 1145,75.2 1144,77.2 1144,78.2 1143,79.2 1143,80.2 1142,80.2 1140,80.2 1139,79.2 1139,78.2 Z M 1250,69.2 C 1251,69.2 1252,69.2 1253,71.2 L 1248,79.2 C 1248,78.2 1247,77.2 1247,76.2 1247,73.2 1248,72.2 1248,70.2 1249,69.2 1249,69.2 1250,69.2 Z M 1173,70.2 V 73.2 C 1173,76.2 1173,78.2 1172,79.2 1172,80.2 1171,81.2 1170,80.2 1169,80.2 1168,80.2 1167,79.2 Z M 1253,73.2 V 76.2 81.2 C 1252,82.2 1251,82.2 1250,82.2 1249,82.2 1249,82.2 1248,81.2 Z M 486.6,82.2 C 483.3,82.2 480.8,84.2 479.1,86.2 477.4,88.2 476.5,91.2 476.6,95.2 476.6,99.2 477.4,102.2 479.1,104.2 480.8,106.2 483.3,107.2 486.7,107.2 490,107.2 492.5,106.2 494.2,104.2 495.8,102.2 496.7,99.2 496.6,95.2 496.6,91.2 495.8,88.2 494.1,86.2 492.4,84.2 489.9,82.2 486.6,82.2 Z M 536.3,84.2 528.7,87.2 528.8,90.2 536.3,87.2 V 104.2 H 530 V 107.2 H 546.5 V 104.2 H 540.4 L 540.3,84.2 Z M 486.6,85.2 C 488.4,85.2 489.8,86.2 490.9,88.2 L 481.2,99.2 C 480.9,98.2 480.8,96.2 480.8,95.2 480.8,91.2 481.2,89.2 482.2,88.2 483.2,86.2 484.7,85.2 486.6,85.2 Z M 584.7,85.2 577.5,88.2 V 90.2 L 584.8,88.2 584.9,105.2 H 578.8 V 107.2 L 594.7,108.2 V 105.2 H 588.7 L 588.6,85.2 Z M 632.1,85.2 C 629.1,85.2 626.9,86.2 625.4,88.2 623.8,90.2 623.1,93.2 623.1,97.2 623.1,100.2 623.9,103.2 625.4,105.2 626.9,107.2 629.2,108.2 632.1,108.2 635.1,108.2 637.3,107.2 638.8,105.2 640.3,103.2 641,101.2 641,97.2 641,93.2 640.3,90.2 638.8,89.2 637.2,86.2 635,85.2 632.1,85.2 Z M 677,86.2 C 674.1,86.2 672,87.2 670.5,89.2 669.1,91.2 668.4,94.2 668.4,97.2 668.4,101.2 669.1,104.2 670.6,105.2 672.1,107.2 674.2,108.2 677.1,108.2 679.9,108.2 682.1,107.2 683.5,106.2 685,104.2 685.7,101.2 685.7,97.2 685.7,94.2 685,91.2 683.5,89.2 682,87.2 679.8,86.2 677,86.2 Z M 719.8,87.2 713.3,90.2 V 92.2 L 719.9,90.2 V 106.2 H 714.5 V 109.2 H 728.7 V 106.2 H 723.4 L 723.3,87.2 Z M 632.1,88.2 C 633.6,88.2 634.9,88.2 635.9,90.2 L 627.2,101.2 C 627,99.2 626.9,98.2 626.9,97.2 626.9,93.2 627.3,91.2 628.2,90.2 629,88.2 630.3,88.2 632.1,88.2 Z M 677,88.2 C 678.6,88.2 679.8,89.2 680.7,91.2 L 672.4,101.2 C 672.1,100.2 672,99.2 672,97.2 672,94.2 672.4,92.2 673.2,90.2 674.1,89.2 675.3,88.2 677,88.2 Z M 802.6,88.2 C 800,88.2 798.1,89.2 796.8,91.2 795.5,93.2 794.8,95.2 794.9,99.2 794.9,102.2 795.5,105.2 796.9,107.2 798.2,108.2 800.1,109.2 802.7,109.2 805.3,109.2 807.2,108.2 808.6,107.2 809.8,105.2 810.5,102.2 810.5,99.2 810.5,96.2 809.8,93.2 808.5,91.2 807.1,89.2 805.2,88.2 802.6,88.2 Z M 839.9,88.9 C 838.3,88.9 837,89.9 836.1,92.2 834.8,93.2 834.2,96.2 834.2,99.2 834.2,103.2 834.9,105.2 836.1,107.2 837.4,109.2 839.3,110.2 841.8,110.2 844.3,110.2 846.1,109.2 847.4,107.2 848.6,105.2 849.2,103.2 849.2,99.2 849.2,96.2 848.6,93.2 847.3,92.2 846,90.2 844.2,89.2 841.7,89.2 841.1,88.9 840.5,88.9 839.9,88.9 Z M 879.4,89.2 C 877,89.2 875.2,90.2 874,92.2 872.7,94.2 872.1,96.2 872.2,100.2 872.2,103.2 872.8,106.2 874,107.2 875.3,109.2 877.1,110.2 879.5,110.2 881.9,110.2 883.7,109.2 884.9,107.2 886.1,106.2 886.8,103.2 886.7,100.2 886.7,97.2 886.1,94.2 884.8,92.2 883.6,90.2 881.8,89.2 879.4,89.2 Z M 802.6,90.2 C 804,90.2 805.1,91.2 805.9,92.2 L 798.5,103.2 C 798.3,101.2 798.2,100.2 798.2,99.2 798.2,96.2 798.5,94.2 799.2,92.2 800,91.2 801.1,90.2 802.6,90.2 Z M 915.9,90.2 C 913.5,90.2 911.8,91.2 910.6,93.2 909.4,94.2 908.9,97.2 908.9,100.2 908.9,103.2 909.5,106.2 910.7,108.2 911.9,109.2 913.6,110.2 916,110.2 918.3,110.2 920.1,109.2 921.3,108.2 922.4,106.2 923,104.2 923,100.2 923,97.2 922.4,95.2 921.2,93.2 920,91.2 918.2,90.2 915.9,90.2 Z M 492.1,91.2 C 492.3,92.2 492.5,93.2 492.5,95.2 492.5,98.2 492,101.2 491,102.2 490.1,104.2 488.6,105.2 486.7,105.2 484.7,105.2 483.2,104.2 482.2,102.2 Z M 841.7,91.2 C 843,91.2 844.1,92.2 844.9,93.2 L 837.7,103.2 C 837.5,102.2 837.4,101.2 837.3,99.2 837.3,96.2 837.7,94.2 838.4,93.2 839.1,92.2 840.2,91.2 841.7,91.2 Z M 950.8,91.2 945.5,93.2 V 96.2 L 950.8,93.2 950.9,108.2 H 946.4 V 110.2 H 958 V 108.2 H 953.7 L 953.6,91.2 Z M 879.4,92.2 C 880.7,92.2 881.8,92.2 882.5,94.2 L 875.5,104.2 C 875.3,102.2 875.2,101.2 875.2,100.2 875.2,97.2 875.5,95.2 876.2,93.2 876.9,92.2 878,92.2 879.4,92.2 Z M 915.9,92.2 C 917.2,92.2 918.2,93.2 918.9,94.2 L 912.2,104.2 C 912,103.2 911.9,101.2 911.9,100.2 911.9,97.2 912.2,95.2 912.8,94.2 913.5,93.2 914.5,92.2 915.9,92.2 Z M 985,92.2 979.8,94.2 979.9,96.2 985,94.2 V 108.2 H 980.8 V 111.2 H 992 V 108.2 H 987.8 L 987.7,92.2 Z M 1018,92.2 1013,94.2 V 97.2 L 1018,94.2 V 109.2 H 1014 V 111.2 H 1025 V 109.2 H 1021 V 92.2 Z M 1051,92.2 C 1049,92.2 1047,93.2 1046,95.2 1045,96.2 1045,99.2 1045,102.2 1045,105.2 1045,107.2 1046,109.2 1047,110.2 1049,111.2 1051,111.2 1053,111.2 1054,110.2 1055,109.2 1056,107.2 1057,105.2 1057,102.2 1057,99.2 1056,97.2 1055,95.2 1054,93.2 1053,92.2 1051,92.2 Z M 637,93.2 C 637.2,94.2 637.3,95.2 637.3,97.2 637.3,100.2 636.9,102.2 636,104.2 635.2,105.2 633.9,106.2 632.1,106.2 630.4,106.2 629.1,105.2 628.1,103.2 Z M 681.7,93.2 C 681.9,94.2 682.1,96.2 682.1,97.2 682.1,101.2 681.7,103.2 680.8,104.2 680.1,106.2 678.8,106.2 677.1,106.2 675.4,106.2 674.1,105.2 673.2,103.2 Z M 1082,93.2 C 1080,93.2 1078,94.2 1077,95.2 1076,97.2 1076,99.2 1076,102.2 1076,105.2 1076,108.2 1077,109.2 1078,111.2 1080,111.2 1082,111.2 1084,111.2 1085,111.2 1086,109.2 1087,108.2 1088,105.2 1088,102.2 1088,99.2 1087,97.2 1086,96.2 1085,94.2 1084,93.2 1082,93.2 Z M 1051,94.2 C 1052,94.2 1053,95.2 1053,96.2 L 1047,105.2 V 102.2 C 1047,99.2 1047,97.2 1048,96.2 1049,95.2 1049,94.2 1051,94.2 Z M 1111,94.2 1107,96.2 V 98.2 L 1112,96.2 V 109.2 H 1108 V 112.2 H 1118 V 109.2 H 1114 V 94.2 Z M 1141,94.2 1137,96.2 V 99.2 L 1141,96.2 V 110.2 H 1137 V 112.2 H 1147 V 110.2 H 1143 V 94.2 Z M 1170,94.2 C 1168,94.2 1167,95.2 1166,97.2 1165,98.2 1164,100.2 1164,103.2 1164,106.2 1165,108.2 1166,110.2 1167,111.2 1168,112.2 1170,112.2 1172,112.2 1173,111.2 1174,110.2 1175,109.2 1176,106.2 1176,103.2 1176,101.2 1175,98.2 1174,97.2 1173,95.2 1171,94.2 1170,94.2 Z M 806.9,95.2 C 807.1,96.2 807.2,97.2 807.2,99.2 807.2,102.2 806.8,104.2 806.1,105.2 805.4,107.2 804.2,107.2 802.7,107.2 801.2,107.2 800,106.2 799.2,105.2 Z M 1082,95.2 C 1083,95.2 1084,95.2 1084,97.2 L 1079,106.2 C 1079,105.2 1078,103.2 1078,102.2 1078,100.2 1079,98.2 1079,97.2 1080,95.2 1081,95.2 1082,95.2 Z M 1197,95.2 1193,97.2 V 99.2 L 1197,97.2 V 110.2 H 1194 V 112.2 H 1203 V 110.2 H 1199 V 95.2 Z M 845.8,96.2 C 846,96.2 846.1,98.2 846.1,99.2 846.1,102.2 845.8,104.2 845,106.2 844.3,107.2 843.2,108.2 841.8,108.2 840.3,108.2 839.2,107.2 838.4,105.2 Z M 883.4,96.2 C 883.6,97.2 883.7,98.2 883.7,100.2 883.7,103.2 883.3,105.2 882.6,106.2 881.9,107.2 880.9,108.2 879.5,108.2 878.1,108.2 877,107.2 876.2,105.2 Z M 1170,96.2 C 1171,96.2 1172,97.2 1172,98.2 L 1167,107.2 V 103.2 C 1167,101.2 1167,99.2 1168,98.2 1168,97.2 1169,96.2 1170,96.2 Z M 1224,96.2 1220,98.2 V 100.2 L 1224,98.2 V 110.2 H 1221 V 113.2 H 1230 V 110.2 H 1226 V 96.2 Z M 1250,96.2 1246,98.2 V 100.2 L 1250,98.2 V 111.2 H 1247 V 113.2 H 1255 V 111.2 H 1253 L 1252,96.2 Z M 919.7,97.2 C 919.9,97.2 920.1,99.2 920.1,100.2 920.1,103.2 919.8,105.2 919.1,106.2 918.4,108.2 917.4,108.2 916,108.2 914.6,108.2 913.6,107.2 912.9,106.2 Z M 1054,98.2 V 102.2 C 1054,105.2 1054,107.2 1053,108.2 1053,109.2 1052,109.2 1051,109.2 1050,109.2 1049,109.2 1048,107.2 Z M 1085,99.2 V 102.2 108.2 C 1084,109.2 1083,110.2 1082,110.2 1081,110.2 1080,109.2 1079,107.2 Z M 1173,100.2 V 103.2 C 1173,106.2 1173,108.2 1172,109.2 1172,110.2 1171,110.2 1170,110.2 1169,110.2 1168,110.2 1168,108.2 Z M 720.6,123.2 C 717.8,123.2 715.7,124.2 714.3,126.2 712.9,128.2 712.1,131.2 712.2,135.2 712.2,138.2 712.9,141.2 714.4,143.2 715.8,145.2 717.9,146.2 720.6,146.2 723.4,146.2 725.5,145.2 726.8,143.2 728.2,141.2 728.9,138.2 728.9,135.2 728.9,131.2 728.2,128.2 726.8,126.2 725.4,124.2 723.3,123.2 720.6,123.2 Z M 486,124.2 478.2,126.2 V 130.2 L 486,127.2 486.1,144.2 H 479.5 V 147.2 H 496.7 V 144.2 H 490.3 L 490.2,124.2 Z M 536.4,124.2 528.9,126.2 V 130.2 L 536.4,127.2 V 144.2 H 530.1 V 146.2 H 546.6 V 144.2 H 540.5 L 540.4,124.2 Z M 584.8,124.2 577.6,126.2 V 130.2 L 584.9,127.2 585,144.2 H 578.9 V 146.2 H 594.8 V 144.2 H 588.8 L 588.7,124.2 Z M 631.6,124.2 624.6,126.2 V 130.2 L 631.6,127.2 631.7,143.2 H 625.8 V 146.2 L 641.1,145.2 V 143.2 H 635.4 L 635.3,124.2 Z M 761.8,124.2 755.6,126.2 V 129.2 L 761.8,127.2 761.9,143.2 H 756.7 V 145.2 H 770.4 V 143.2 H 765.3 L 765.2,124.2 Z M 802.2,124.2 796.2,126.2 V 129.2 L 802.3,127.2 802.4,142.2 H 797.2 V 144.2 H 810.5 V 142.2 H 805.5 V 124.2 Z M 841.3,124.2 835.5,126.2 V 129.2 L 841.3,127.2 841.4,142.2 H 836.5 V 144.2 H 849.3 V 142.2 H 844.5 V 124.2 Z M 879.5,124.2 C 877.1,124.2 875.3,124.2 874.1,126.2 872.9,128.2 872.3,131.2 872.3,134.2 872.3,138.2 872.9,140.2 874.2,142.2 875.4,144.2 877.2,144.2 879.6,144.2 882,144.2 883.8,143.2 885,142.2 886.3,140.2 886.9,138.2 886.9,134.2 886.9,131.2 886.2,128.2 885,126.2 883.7,124.2 881.9,124.2 879.5,124.2 Z M 915.5,124.2 910.1,126.2 V 129.2 L 915.6,127.2 915.7,142.2 H 911.1 V 143.2 H 923.1 V 142.2 H 918.6 L 918.5,124.2 Z M 720.6,125.2 C 722,125.2 723.2,126.2 724,127.2 L 716.1,138.2 C 715.8,137.2 715.7,136.2 715.7,135.2 715.7,132.2 716.1,129.2 716.9,128.2 717.7,126.2 718.9,125.2 720.6,125.2 Z M 879.6,126.2 C 880.9,126.2 881.9,126.2 882.7,127.2 L 875.7,137.2 C 875.5,137.2 875.4,136.2 875.4,134.2 875.3,131.2 875.7,129.2 876.4,128.2 877.1,126.2 878.1,126.2 879.6,126.2 Z M 725,130.2 C 725.3,131.2 725.4,133.2 725.4,135.2 725.5,137.2 725.1,139.2 724.3,141.2 723.5,143.2 722.2,144.2 720.6,144.2 719,144.2 717.8,143.2 716.9,141.2 Z M 883.5,130.2 C 883.7,131.2 883.8,133.2 883.8,134.2 883.8,137.2 883.5,139.2 882.8,140.2 882.1,142.2 881,142.2 879.6,142.2 878.2,142.2 877.1,142.2 876.4,140.2 Z M 1225,153.2 C 1223,153.2 1222,154.2 1221,156.2 1220,157.2 1219,159.2 1219,162.2 1219,165.2 1220,167.2 1221,169.2 1222,170.2 1223,171.2 1225,171.2 1227,171.2 1228,170.2 1229,169.2 1230,167.2 1230,165.2 1230,162.2 1230,159.2 1230,157.2 1229,155.2 1228,154.2 1227,153.2 1225,153.2 Z M 1144,154.2 1141,155.2 1137,157.2 V 159.2 L 1141,157.2 V 171.2 H 1138 V 172.2 H 1147 V 170.2 L 1144,171.2 Z M 1112,155.2 C 1111,155.2 1109,156.2 1108,157.2 1107,159.2 1107,161.2 1107,164.2 1107,167.2 1107,169.2 1108,171.2 1109,173.2 1111,173.2 1112,173.2 1114,173.2 1116,173.2 1117,171.2 1118,169.2 1118,167.2 1118,164.2 1118,161.2 1118,159.2 1117,157.2 1116,156.2 1114,155.2 1112,155.2 Z M 1225,155.2 C 1226,155.2 1226,155.2 1227,156.2 L 1222,165.2 V 162.2 C 1222,160.2 1222,158.2 1223,157.2 1223,155.2 1224,155.2 1225,155.2 Z M 985.7,157.2 C 983.6,157.2 981.9,158.2 980.8,159.2 979.7,161.2 979.2,163.2 979.2,166.2 979.2,170.2 979.8,172.2 980.9,174.2 982,176.2 983.7,176.2 985.8,176.2 988,176.2 989.6,175.2 990.7,174.2 991.9,172.2 992.4,169.2 992.4,166.2 992.4,163.2 991.8,161.2 990.7,159.2 989.5,157.2 987.9,157.2 985.7,157.2 Z M 1112,157.2 C 1114,157.2 1114,157.2 1115,158.2 L 1109,167.2 V 164.2 C 1109,162.2 1109,160.2 1110,158.2 1110,157.2 1111,157.2 1112,157.2 Z M 879.2,158.2 873.6,161.2 V 163.2 L 879.2,161.2 879.3,176.2 H 874.6 V 178.2 H 887 L 886.9,176.2 H 882.3 L 882.2,158.2 Z M 985.7,158.2 C 986.9,158.2 987.9,159.2 988.6,160.2 L 982.2,170.2 C 982,169.2 981.9,167.2 981.9,166.2 981.9,164.2 982.2,162.2 982.9,160.2 983.5,159.2 984.5,158.2 985.7,158.2 Z M 802.4,159.2 796.3,162.2 V 164.2 L 802.5,162.2 V 178.2 H 797.4 V 180.2 H 810.7 L 810.6,178.2 H 805.7 L 805.6,159.2 Z M 841.4,159.2 835.6,161.2 V 164.2 L 841.5,161.2 841.6,177.2 H 836.7 V 179.2 H 849.5 V 177.2 H 844.7 L 844.6,159.2 Z M 1228,159.2 V 162.2 C 1228,164.2 1228,166.2 1227,167.2 1227,168.2 1226,169.2 1225,169.2 1224,169.2 1223,168.2 1223,167.2 Z M 720,160.2 713.6,163.2 V 166.2 L 720.1,163.2 720.2,180.2 H 714.8 V 182.2 H 729 V 180.2 H 723.7 L 723.6,160.2 Z M 762.5,160.2 C 759.9,160.2 757.8,161.2 756.5,162.2 755.1,164.2 754.5,167.2 754.5,170.2 754.5,174.2 755.2,177.2 756.6,179.2 757.9,181.2 759.9,182.2 762.6,182.2 765.3,181.2 767.2,181.2 768.6,179.2 769.9,177.2 770.6,174.2 770.6,170.2 770.6,167.2 769.9,164.2 768.5,162.2 767.2,161.2 765.2,160.2 762.5,160.2 Z M 1116,160.2 V 164.2 C 1116,166.2 1115,168.2 1115,169.2 1114,171.2 1114,171.2 1112,171.2 1111,171.2 1110,171.2 1110,170.2 Z M 676.7,161.2 670,164.2 V 167.2 L 676.7,164.2 676.8,181.2 H 671.1 V 183.2 H 685.9 V 181.2 H 680.4 L 680.3,161.2 Z M 585.7,162.2 C 582.5,162.2 580.2,163.2 578.6,165.2 577.1,167.2 576.3,170.2 576.3,174.2 576.3,178.2 577.1,181.2 578.7,183.2 580.3,185.2 582.6,186.2 585.8,186.2 588.8,186.2 591.1,185.2 592.7,183.2 594.2,180.2 595,177.2 595,173.2 595,170.2 594.2,167.2 592.6,165.2 591.1,163.2 588.7,162.2 585.7,162.2 Z M 632.3,162.2 C 629.4,162.2 627.1,163.2 625.6,164.2 624.1,166.2 623.4,169.2 623.4,173.2 623.4,177.2 624.1,180.2 625.7,182.2 627.2,184.2 629.4,185.2 632.4,185.2 635.4,184.2 637.6,183.2 639.1,182.2 640.6,179.2 641.3,176.2 641.3,173.2 641.3,169.2 640.5,166.2 639,164.2 637.5,162.2 635.3,162.2 632.3,162.2 Z M 762.5,162.2 C 764,162.2 765.1,162.2 766,164.2 L 758.2,174.2 C 758,173.2 757.9,172.2 757.9,170.2 757.8,168.2 758.2,166.2 759,164.2 759.8,162.2 761,162.2 762.5,162.2 Z M 989.3,163.2 C 989.5,164.2 989.6,165.2 989.6,166.2 989.6,169.2 989.3,171.2 988.7,172.2 988.1,173.2 987.1,174.2 985.8,174.2 984.5,174.2 983.6,173.2 982.9,172.2 Z M 585.7,164.2 C 587.3,164.2 588.6,165.2 589.6,166.2 L 580.7,178.2 C 580.4,176.2 580.3,175.2 580.3,174.2 580.3,171.2 580.7,168.2 581.5,167.2 582.4,165.2 583.8,164.2 585.7,164.2 Z M 632.3,164.2 C 633.9,164.2 635.2,164.2 636.2,166.2 L 627.5,177.2 C 627.3,176.2 627.1,174.2 627.1,173.2 627.1,170.2 627.5,168.2 628.4,166.2 629.3,164.2 630.6,164.2 632.3,164.2 Z M 766.9,166.2 C 767.1,168.2 767.2,169.2 767.2,170.2 767.2,173.2 766.9,176.2 766.1,177.2 765.3,178.2 764.2,179.2 762.6,179.2 761,179.2 759.8,178.2 759,177.2 Z M 637.2,168.2 C 637.4,170.2 637.6,171.2 637.6,173.2 637.6,176.2 637.2,178.2 636.3,180.2 635.4,181.2 634.1,182.2 632.4,182.2 630.6,182.2 629.3,181.2 628.4,180.2 Z M 590.7,169.2 C 591,171.2 591.1,172.2 591.1,173.2 591.1,177.2 590.7,179.2 589.8,181.2 588.9,182.2 587.6,183.2 585.7,183.2 583.9,183.2 582.5,182.2 581.6,181.2 Z M 1251,182.2 1247,184.2 V 186.2 L 1251,184.2 V 196.2 L 1248,197.2 V 199.2 L 1256,198.2 V 196.2 H 1253 V 182.2 Z M 1198,183.2 1193,186.2 V 188.2 L 1198,185.2 V 198.2 L 1194,199.2 V 201.2 L 1203,200.2 V 198.2 H 1200 V 183.2 Z M 1082,187.2 1077,189.2 V 191.2 L 1082,189.2 V 203.2 H 1078 V 205.2 H 1088 V 202.2 L 1084,203.2 V 187.2 Z M 1019,188.2 C 1017,188.2 1015,189.2 1014,191.2 1013,193.2 1013,195.2 1013,198.2 1013,201.2 1013,204.2 1014,205.2 1015,207.2 1017,207.2 1019,207.2 1021,207.2 1023,206.2 1024,205.2 1025,203.2 1026,201.2 1026,198.2 1026,195.2 1025,192.2 1024,191.2 1023,189.2 1021,188.2 1019,188.2 Z M 951.7,190.2 C 949.5,190.2 947.8,191.2 946.6,193.2 945.5,195.2 944.9,197.2 944.9,200.2 944.9,204.2 945.5,206.2 946.7,208.2 947.8,209.2 949.6,210.2 951.8,210.2 954,210.2 955.7,209.2 956.9,207.2 958,206.2 958.6,203.2 958.5,200.2 958.5,197.2 957.9,194.2 956.8,193.2 955.6,191.2 953.9,190.2 951.7,190.2 Z M 1019,190.2 C 1020,190.2 1021,191.2 1022,192.2 L 1016,202.2 C 1016,200.2 1015,199.2 1015,198.2 1015,195.2 1016,193.2 1016,192.2 1017,191.2 1018,190.2 1019,190.2 Z M 879.9,192.2 C 877.5,192.2 875.6,193.2 874.4,195.2 873.2,197.2 872.6,200.2 872.6,203.2 872.6,206.2 873.3,209.2 874.5,210.2 875.7,212.2 877.5,213.2 879.9,213.2 882.3,213.2 884.1,212.2 885.3,210.2 886.6,208.2 887.2,206.2 887.2,202.2 887.2,199.2 886.6,197.2 885.3,195.2 884.1,193.2 882.2,192.2 879.9,192.2 Z M 951.7,192.2 C 952.9,192.2 953.9,193.2 954.6,194.2 L 948.1,204.2 C 947.9,203.2 947.8,202.2 947.8,200.2 947.8,198.2 948.1,195.2 948.7,194.2 949.4,193.2 950.4,192.2 951.7,192.2 Z M 842.1,193.2 C 839.7,193.2 837.8,194.2 836.5,196.2 835.3,198.2 834.6,201.2 834.6,204.2 834.7,208.2 835.3,210.2 836.6,212.2 837.9,213.2 839.7,214.2 842.2,214.2 844.7,214.2 846.6,213.2 847.8,211.2 849.1,210.2 849.7,207.2 849.7,204.2 849.7,200.2 849,198.2 847.7,196.2 846.5,194.2 844.6,193.2 842.1,193.2 Z M 1023,194.2 C 1023,195.2 1023,196.2 1023,198.2 1023,201.2 1023,203.2 1022,204.2 1021,205.2 1020,206.2 1019,206.2 1018,206.2 1017,205.2 1016,203.2 Z M 880.8,195.2 C 881.7,195.2 882.4,195.2 883,196.2 L 876,207.2 C 875.8,205.2 875.7,204.2 875.7,203.2 875.6,200.2 876,198.2 876.7,196.2 877.4,195.2 878.5,195.2 879.9,195.2 880.2,195.2 880.5,195.2 880.8,195.2 Z M 802.5,195.2 796.5,198.2 V 200.2 L 802.6,197.2 802.7,213.2 H 797.5 V 216.2 L 810.8,215.2 V 213.2 H 805.8 V 195.2 Z M 842.1,196.2 C 843.5,196.2 844.5,196.2 845.4,197.2 L 838.1,208.2 C 837.9,207.2 837.8,205.2 837.8,204.2 837.8,201.2 838.1,199.2 838.9,198.2 839.6,196.2 840.7,196.2 842.1,196.2 Z M 955.4,196.2 C 955.6,197.2 955.7,198.2 955.7,200.2 955.7,203.2 955.4,205.2 954.8,206.2 954.1,207.2 953.1,208.2 951.8,208.2 950.5,208.2 949.5,207.2 948.7,206.2 Z M 720.8,197.2 C 718.1,197.2 716,198.2 714.6,200.2 713.1,202.2 712.4,205.2 712.4,208.2 712.4,212.2 713.2,215.2 714.7,216.2 716.1,218.2 718.2,219.2 720.9,219.2 723.7,219.2 725.7,218.2 727.1,216.2 728.5,214.2 729.2,211.2 729.2,208.2 729.2,204.2 728.5,202.2 727.1,200.2 725.7,198.2 723.6,197.2 720.8,197.2 Z M 680.4,198.2 676.8,199.2 670.1,202.2 V 204.2 L 676.8,201.2 676.9,218.2 H 671.2 L 671.3,221.2 686,220.2 V 217.2 L 680.5,218.2 Z M 632.4,199.2 C 629.5,199.2 627.2,200.2 625.7,203.2 624.2,205.2 623.5,208.2 623.5,211.2 623.5,215.2 624.3,218.2 625.8,220.2 627.3,221.2 629.6,222.2 632.5,222.2 635.5,222.2 637.7,221.2 639.2,219.2 640.7,217.2 641.4,214.2 641.4,211.2 641.4,207.2 640.7,204.2 639.1,202.2 637.6,200.2 635.4,199.2 632.4,199.2 Z M 720.8,199.2 C 722.3,199.2 723.5,200.2 724.3,201.2 L 716.3,212.2 C 716.1,211.2 716,210.2 716,208.2 716,205.2 716.4,203.2 717.2,201.2 718,200.2 719.2,199.2 720.8,199.2 Z M 883.8,199.2 C 884,200.2 884.1,201.2 884.1,203.2 884.1,205.2 883.8,208.2 883.1,209.2 882.4,210.2 881.3,211.2 879.9,211.2 878.5,211.2 877.4,210.2 876.7,208.2 Z M 846.2,200.2 C 846.4,201.2 846.5,202.2 846.5,204.2 846.6,207.2 846.2,209.2 845.5,210.2 844.8,211.2 843.7,212.2 842.2,212.2 840.8,212.2 839.6,211.2 838.8,210.2 Z M 585.1,201.2 577.8,204.2 V 207.2 L 585.2,204.2 V 221.2 H 579.2 V 224.2 H 595.1 V 221.2 H 589 V 201.2 Z M 632.5,202.2 C 634,202.2 635.3,203.2 636.3,204.2 L 627.6,215.2 C 627.4,214.2 627.3,213.2 627.3,211.2 627.2,208.2 627.7,206.2 628.5,204.2 629.4,203.2 630.7,202.2 632.5,202.2 Z M 725.3,204.2 C 725.6,205.2 725.7,206.2 725.7,208.2 725.7,211.2 725.3,213.2 724.5,215.2 723.7,216.2 722.5,217.2 720.9,217.2 719.3,217.2 718,216.2 717.2,214.2 Z M 637.3,207.2 C 637.6,208.2 637.7,209.2 637.7,211.2 637.7,214.2 637.3,216.2 636.4,218.2 635.6,219.2 634.3,220.2 632.5,220.2 630.8,220.2 629.4,219.2 628.5,217.2 Z M 1251,210.2 C 1250,210.2 1248,211.2 1247,212.2 1247,214.2 1246,216.2 1246,219.2 1246,222.2 1247,224.2 1247,225.2 1248,227.2 1250,227.2 1251,227.2 1253,227.2 1254,226.2 1255,225.2 1256,224.2 1256,221.2 1256,219.2 1256,215.2 1256,213.2 1255,212.2 1254,211.2 1253,210.2 1251,210.2 Z M 1198,212.2 C 1197,212.2 1195,213.2 1194,215.2 1193,216.2 1193,218.2 1193,222.2 1193,225.2 1193,227.2 1194,228.2 1195,230.2 1197,230.2 1198,230.2 1200,230.2 1201,229.2 1202,228.2 1203,226.2 1203,224.2 1203,221.2 1203,218.2 1203,216.2 1202,214.2 1201,213.2 1200,212.2 1198,212.2 Z M 1225,212.2 1221,214.2 V 216.2 L 1225,214.2 V 227.2 H 1221 V 229.2 L 1230,228.2 V 226.2 H 1227 V 212.2 Z M 1251,212.2 C 1252,212.2 1253,212.2 1254,213.2 L 1249,222.2 C 1248,221.2 1248,220.2 1248,219.2 1248,217.2 1249,215.2 1249,214.2 1250,213.2 1250,212.2 1251,212.2 Z M 1198,214.2 C 1199,214.2 1200,215.2 1200,215.2 L 1195,224.2 V 222.2 C 1195,219.2 1195,217.2 1196,216.2 1196,215.2 1197,215.2 1198,214.2 Z M 1254,215.2 V 219.2 223.2 C 1253,225.2 1252,226.2 1251,226.2 1250,226.2 1250,225.2 1249,224.2 Z M 1082,218.2 1077,221.2 V 223.2 L 1082,220.2 V 234.2 H 1078 V 237.2 L 1088,236.2 V 234.2 H 1085 V 218.2 Z M 1201,218.2 V 221.2 C 1201,223.2 1201,225.2 1200,226.2 1200,228.2 1199,228.2 1198,228.2 1197,229.2 1196,228.2 1196,226.2 Z M 1019,220.2 C 1017,220.2 1016,221.2 1014,223.2 1013,225.2 1013,227.2 1013,231.2 1013,234.2 1013,236.2 1015,238.2 1016,239.2 1017,240.2 1019,240.2 1021,240.2 1023,239.2 1024,237.2 1025,235.2 1026,233.2 1026,230.2 1026,226.2 1025,224.2 1024,222.2 1023,221.2 1021,220.2 1019,220.2 Z M 985.6,222.2 980.5,225.2 V 227.2 L 985.6,225.2 985.7,239.2 H 981.4 V 242.2 L 992.7,241.2 992.6,239.2 H 988.4 V 222.2 Z M 951.9,223.2 C 949.6,223.2 947.9,224.2 946.8,226.2 945.6,228.2 945.1,230.2 945.1,234.2 945.1,237.2 945.7,240.2 946.8,241.2 948,243.2 949.7,243.2 952,243.2 954.2,243.2 955.9,242.2 957,241.2 958.2,239.2 958.7,237.2 958.7,233.2 958.7,230.2 958.1,227.2 956.9,226.2 955.8,224.2 954.1,223.2 951.9,223.2 Z M 1019,223.2 C 1020,223.2 1021,223.2 1022,224.2 L 1016,233.2 C 1016,233.2 1016,232.2 1016,230.2 1016,228.2 1016,226.2 1017,225.2 1017,223.2 1018,223.2 1019,223.2 Z M 951.9,226.2 C 953.1,226.2 954,226.2 954.8,227.2 L 948.2,237.2 C 948,236.2 947.9,235.2 947.9,234.2 947.9,231.2 948.3,229.2 948.9,228.2 949.6,226.2 950.6,226.2 951.9,226.2 Z M 1023,226.2 C 1023,227.2 1023,229.2 1023,230.2 1023,232.2 1023,234.2 1022,235.2 1022,237.2 1021,238.2 1019,238.2 1018,238.2 1017,237.2 1017,236.2 Z M 879.5,227.2 873.9,230.2 V 232.2 L 879.5,230.2 879.6,245.2 H 874.9 V 247.2 H 887.3 V 244.2 L 882.6,245.2 882.5,227.2 Z M 841.7,229.2 835.9,232.2 V 234.2 L 841.8,231.2 841.9,247.2 H 837 V 250.2 L 849.8,249.2 V 246.2 L 845,247.2 844.9,229.2 Z M 955.6,229.2 C 955.8,230.2 955.9,232.2 955.9,233.2 955.9,236.2 955.6,238.2 954.9,239.2 954.3,241.2 953.3,241.2 952,242.2 950.6,242.2 949.6,241.2 948.9,239.2 Z M 679.5,236.2 C 678.9,236.2 678.2,236.2 677.5,236.2 674.7,236.2 672.5,237.2 671.1,239.2 669.6,240.2 668.9,243.2 668.9,248.2 668.9,251.2 669.7,254.2 671.1,256.2 672.6,257.2 674.8,258.2 677.6,258.2 680.5,258.2 682.6,257.2 684.1,255.2 685.5,253.2 686.3,250.2 686.3,247.2 686.3,243.2 685.5,240.2 684,238.2 682.9,237.2 681.4,236.2 679.5,236.2 Z M 632,238.2 625,241.2 V 244.2 L 632,241.2 V 258.2 H 626.2 V 261.2 L 641.5,260.2 V 257.2 L 635.8,258.2 635.7,238.2 Z M 677.5,238.2 C 679.1,238.2 680.3,239.2 681.2,239.2 L 673,251.2 C 672.7,250.2 672.5,249.2 672.5,247.2 672.5,244.2 672.9,242.2 673.8,240.2 674.6,239.2 675.9,238.2 677.5,238.2 Z M 1251,239.2 1247,241.2 V 243.2 L 1251,241.2 V 254.2 H 1248 V 256.2 L 1256,255.2 V 254.2 H 1253 V 239.2 Z M 588.1,240.2 C 587.4,240.2 586.7,240.2 585.9,240.2 582.8,240.2 580.4,241.2 578.9,243.2 577.3,245.2 576.5,248.2 576.5,252.2 576.5,256.2 577.3,259.2 578.9,261.2 580.5,262.2 582.9,263.2 586,263.2 589.1,263.2 591.4,262.2 592.9,260.2 594.5,258.2 595.3,255.2 595.2,251.2 595.2,247.2 594.4,244.2 592.9,242.2 591.7,241.2 590.1,240.2 588.1,240.2 Z M 537.4,242.2 C 534.2,242.2 531.8,243.2 530.2,245.2 528.5,247.2 527.7,250.2 527.7,255.2 527.7,258.2 528.6,261.2 530.2,263.2 531.8,265.2 534.3,266.2 537.5,266.2 540.7,265.2 543,264.2 544.7,262.2 546.3,260.2 547.2,257.2 547.2,254.2 547.1,249.2 546.3,246.2 544.6,244.2 543,242.2 540.6,242.2 537.4,242.2 Z M 585.9,242.2 C 587.6,242.2 588.9,243.2 589.8,244.2 L 580.9,255.2 C 580.7,255.2 580.5,253.2 580.5,252.2 580.5,249.2 580.9,246.2 581.8,245.2 582.7,243.2 584.1,243.2 585.9,242.2 Z M 682.2,242.2 C 682.5,244.2 682.6,245.2 682.6,247.2 682.6,250.2 682.2,252.2 681.4,253.2 680.6,255.2 679.3,256.2 677.6,256.2 675.9,256.2 674.6,255.2 673.7,254.2 Z M 1198,242.2 1194,244.2 V 247.2 L 1198,244.2 V 258.2 H 1194 V 259.2 H 1204 V 257.2 H 1200 V 242.2 Z M 486.4,245.2 478.5,248.2 V 251.2 L 486.4,248.2 V 265.2 L 479.9,266.2 V 269.2 L 497,268.2 V 265.2 H 490.6 V 245.2 Z M 537.4,245.2 C 539.2,245.2 540.5,245.2 541.5,246.2 L 532.2,258.2 C 531.9,257.2 531.8,256.2 531.8,254.2 531.8,251.2 532.2,249.2 533.2,247.2 534.1,246.2 535.5,245.2 537.4,245.2 Z M 1142,245.2 1137,248.2 V 250.2 L 1142,248.2 V 261.2 L 1138,262.2 V 263.2 H 1148 V 261.2 H 1144 V 245.2 Z M 434.6,246.2 C 431.1,246.2 428.5,248.2 426.8,250.2 425,252.2 424.1,255.2 424.1,260.2 424.1,264.2 425,267.2 426.8,269.2 428.6,271.2 431.2,271.2 434.7,271.2 438.2,271.2 440.8,270.2 442.5,268.2 444.3,266.2 445.2,263.2 445.1,259.2 445.1,254.2 444.2,251.2 442.5,249.2 440.7,247.2 438.1,246.2 434.6,246.2 Z M 590.9,246.2 C 591.2,248.2 591.4,250.2 591.4,251.2 591.4,254.2 590.9,256.2 590,258.2 589.2,260.2 587.8,261.2 586,261.2 584.2,261.2 582.8,260.2 581.8,258.2 Z M 1113,247.2 C 1111,247.2 1109,248.2 1108,250.2 1108,251.2 1107,253.2 1107,256.2 1107,259.2 1108,262.2 1108,264.2 1110,265.2 1111,266.2 1113,266.2 1115,265.2 1116,265.2 1117,263.2 1118,261.2 1119,259.2 1119,256.2 1119,253.2 1118,250.2 1117,249.2 1116,248.2 1115,247.2 1113,247.2 Z M 383.9,249.2 379.3,250.2 370.9,253.2 V 256.2 L 379.4,253.2 V 271.2 H 372.3 V 275.2 L 390.9,274.2 V 270.2 L 384,271.2 Z M 434.6,249.2 C 436.5,249.2 438,250.2 439.1,251.2 L 429,263.2 C 428.8,262.2 428.6,261.2 428.6,259.2 428.6,256.2 429.1,253.2 430,252.2 431,250.2 432.6,249.2 434.6,249.2 Z M 542.7,249.2 C 542.9,250.2 543,252.2 543,254.2 543.1,257.2 542.6,259.2 541.7,260.2 540.8,262.2 539.4,263.2 537.5,263.2 535.6,264.2 534.1,263.2 533.1,261.2 Z M 1113,249.2 C 1114,249.2 1115,249.2 1115,250.2 L 1110,260.2 V 256.2 251.2 C 1111,249.2 1112,249.2 1113,249.2 Z M 322.5,252.2 313.7,256.2 V 259.2 L 322.6,255.2 V 274.2 H 315.2 V 278.2 L 334.6,277.2 V 273.2 L 327.3,274.2 V 252.2 Z M 1116,252.2 V 256.2 C 1116,258.2 1116,260.2 1115,262.2 1115,263.2 1114,263.2 1113,263.2 1112,263.2 1111,263.2 1110,262.2 Z M 1019,253.2 1014,255.2 V 258.2 L 1019,255.2 V 270.2 H 1015 V 272.2 L 1026,271.2 V 269.2 L 1022,270.2 V 253.2 Z M 440.3,254.2 C 440.6,255.2 440.7,257.2 440.7,259.2 440.7,262.2 440.2,264.2 439.3,266.2 438.3,268.2 436.7,269.2 434.6,269.2 432.7,269.2 431.2,268.2 430.1,266.2 Z M 986.2,255.2 C 984,255.2 982.4,256.2 981.3,257.2 980.2,259.2 979.6,261.2 979.6,265.2 979.7,268.2 980.2,270.2 981.4,272.2 982.5,274.2 984.1,275.2 986.3,274.2 988.5,274.2 990.1,273.2 991.2,272.2 992.3,270.2 992.9,267.2 992.9,264.2 992.9,261.2 992.3,258.2 991.1,257.2 990,255.2 988.4,255.2 986.2,255.2 Z M 986.2,256.2 C 987.4,256.2 988.4,257.2 989,258.2 L 982.7,268.2 C 982.5,267.2 982.4,266.2 982.4,264.2 982.4,262.2 982.7,260.2 983.3,258.2 984,257.2 984.9,257.2 986.2,256.2 Z M 989.8,260.2 C 990,262.2 990.1,263.2 990.1,264.2 990.1,267.2 989.8,269.2 989.2,270.2 988.6,271.2 987.6,272.2 986.3,272.2 985,272.2 984,272.2 983.3,270.2 Z M 880.2,261.2 C 877.8,261.2 875.9,262.2 874.7,264.2 873.5,266.2 872.9,268.2 872.9,272.2 872.9,275.2 873.6,278.2 874.8,280.2 876,281.2 877.8,282.2 880.2,282.2 882.6,282.2 884.4,281.2 885.7,279.2 886.9,277.2 887.5,274.2 887.5,271.2 887.5,267.2 886.9,265.2 885.6,263.2 884.4,262.2 882.6,261.2 880.2,261.2 Z M 841.8,263.2 836.1,266.2 V 269.2 L 841.9,266.2 842,282.2 H 837.1 V 284.2 L 849.9,283.2 V 281.2 L 845.1,282.2 V 263.2 Z M 880.2,263.2 C 881.5,263.2 882.5,263.2 883.3,265.2 L 876.3,275.2 C 876.1,274.2 876,273.2 876,271.2 876,269.2 876.3,267.2 877,265.2 877.7,264.2 878.8,263.2 880.2,263.2 Z M 805.1,266.2 C 804.6,266.2 804,266.2 803.3,266.2 800.8,266.2 798.8,267.2 797.5,269.2 796.2,270.2 795.6,273.2 795.6,277.2 795.6,280.2 796.3,283.2 797.6,285.2 798.9,287.2 800.9,287.2 803.4,287.2 806,287.2 807.9,286.2 809.3,284.2 810.6,282.2 811.2,279.2 811.2,276.2 811.2,272.2 810.5,270.2 809.2,268.2 808.2,267.2 806.9,266.2 805.1,266.2 Z M 884.1,267.2 C 884.3,268.2 884.4,270.2 884.4,271.2 884.4,274.2 884.1,276.2 883.4,277.2 882.7,278.2 881.6,279.2 880.2,279.2 878.8,279.2 877.7,279.2 877,278.2 Z M 804.4,268.2 C 805.3,268.2 806.1,268.2 806.7,269.2 L 799.2,280.2 C 799,279.2 798.9,278.2 798.9,276.2 798.9,274.2 799.2,272.2 799.9,270.2 800.7,268.2 801.8,268.2 803.3,268.2 803.7,268.2 804,268.2 804.4,268.2 Z M 723.1,271.2 C 722.4,271.2 721.8,271.2 721.1,271.2 718.4,271.2 716.3,272.2 714.9,274.2 713.4,276.2 712.7,278.2 712.7,282.2 712.7,285.2 713.5,288.2 714.9,291.2 716.3,292.2 718.4,293.2 721.2,293.2 723.9,293.2 726,292.2 727.4,290.2 728.8,287.2 729.5,284.2 729.5,281.2 729.4,277.2 728.7,275.2 727.3,273.2 726.3,272.2 724.9,271.2 723.1,271.2 Z M 807.6,272.2 C 807.8,273.2 807.9,274.2 807.9,276.2 807.9,279.2 807.5,281.2 806.8,282.2 806.1,284.2 805,284.2 803.4,284.2 801.9,285.2 800.7,284.2 799.9,283.2 Z M 677.1,273.2 670.4,276.2 V 279.2 L 677.1,276.2 677.2,293.2 H 671.5 V 296.2 L 686.3,295.2 V 292.2 L 680.8,293.2 680.7,273.2 Z M 721.1,273.2 C 722.6,273.2 723.7,273.2 724.6,274.2 L 716.6,286.2 C 716.4,284.2 716.3,283.2 716.3,282.2 716.3,279.2 716.7,277.2 717.5,275.2 718.3,273.2 719.5,273.2 721.1,273.2 Z M 632.1,276.2 625.1,279.2 V 282.2 L 632.1,279.2 632.2,296.2 626.3,297.2 V 299.2 L 641.6,298.2 V 296.2 H 635.9 L 635.8,276.2 Z M 725.6,277.2 C 725.9,278.2 726,280.2 726,281.2 726,284.2 725.6,286.2 724.8,288.2 724,289.2 722.8,290.2 721.2,290.2 719.6,290.2 718.3,290.2 717.4,288.2 Z M 588.2,279.2 C 587.6,279.2 586.8,279.2 586.1,279.2 582.9,279.2 580.6,280.2 579,282.2 577.4,284.2 576.6,287.2 576.7,291.2 576.7,294.2 577.5,298.2 579,300.2 580.6,302.2 583,302.2 586.1,302.2 589.2,302.2 591.5,301.2 593.1,299.2 594.6,296.2 595.4,293.2 595.4,289.2 595.4,286.2 594.6,283.2 593,281.2 591.8,280.2 590.2,279.2 588.2,279.2 Z M 586.1,281.2 C 587.7,281.2 589,281.2 589.9,283.2 L 581,295.2 C 580.8,293.2 580.7,292.2 580.7,290.2 580.6,288.2 581.1,285.2 581.9,283.2 582.8,282.2 584.2,281.2 586.1,281.2 Z M 591,285.2 C 591.3,287.2 591.5,288.2 591.5,290.2 591.5,293.2 591.1,295.2 590.2,297.2 589.3,298.2 587.9,299.2 586.1,299.2 584.3,299.2 582.9,299.2 581.9,297.2 Z M 379.4,291.2 371,295.2 V 298.2 L 379.5,294.2 V 313.2 L 372.4,314.2 V 316.2 L 391,315.2 V 313.2 H 384 V 291.2 Z M 916.3,293.2 910.9,296.2 V 298.2 L 916.4,295.2 916.5,310.2 911.9,311.2 V 313.2 L 923.9,312.2 V 310.2 H 919.3 V 293.2 Z M 323.4,294.2 C 319.6,295.2 316.8,296.2 314.9,298.2 313,300.2 312,304.2 312,308.2 312,312.2 313,315.2 314.9,318.2 316.9,320.2 319.7,321.2 323.4,320.2 327.2,320.2 330,319.2 331.9,317.2 333.8,314.2 334.8,310.2 334.8,306.2 334.8,302.2 333.8,299.2 331.9,297.2 330,295.2 327.1,294.2 323.4,294.2 Z M 882.8,295.2 879.8,296.2 874.2,299.2 V 301.2 L 879.8,298.2 879.9,313.2 875.2,314.2 V 316.2 L 887.6,315.2 V 313.2 H 882.9 Z M 1251,296.2 1247,299.2 V 301.2 L 1251,298.2 V 311.2 H 1248 V 313.2 H 1257 V 310.2 L 1254,311.2 V 296.2 Z M 323.4,297.2 C 325.4,297.2 327,297.2 328.2,299.2 L 317.3,312.2 C 317,311.2 316.8,309.2 316.8,307.2 316.8,304.2 317.3,302.2 318.4,299.2 319.5,298.2 321.2,297.2 323.4,297.2 Z M 263.3,298.2 254.1,302.2 V 305.2 L 263.4,301.2 V 321.2 L 255.7,322.2 V 324.2 L 275.9,323.2 V 320.2 L 268.3,321.2 V 298.2 Z M 842,298.2 836.2,301.2 V 304.2 L 842.1,301.2 V 316.2 L 837.2,317.2 837.3,319.2 850.1,318.2 V 316.2 H 845.3 L 845.2,298.2 Z M 1226,298.2 C 1224,298.2 1223,299.2 1222,301.2 1221,302.2 1220,305.2 1220,308.2 1220,311.2 1221,313.2 1222,314.2 1223,315.2 1224,316.2 1226,316.2 1228,315.2 1229,315.2 1229,313.2 1230,312.2 1231,309.2 1231,307.2 1231,304.2 1230,302.2 1229,300.2 1229,299.2 1228,298.2 1226,298.2 Z M 1226,300.2 C 1227,300.2 1227,300.2 1228,301.2 L 1223,310.2 V 307.2 302.2 C 1224,301.2 1225,300.2 1226,300.2 Z M 803.5,301.2 C 800.9,302.2 799,303.2 797.7,304.2 796.4,306.2 795.7,309.2 795.7,312.2 795.7,316.2 796.4,318.2 797.7,320.2 799.1,322.2 801,322.2 803.6,322.2 806.1,322.2 808.1,321.2 809.4,319.2 810.7,317.2 811.4,315.2 811.3,311.2 811.3,308.2 810.7,305.2 809.4,304.2 808,302.2 806,301.2 803.5,301.2 Z M 1198,301.2 1194,304.2 V 306.2 L 1198,303.2 V 316.2 L 1195,317.2 V 319.2 L 1204,318.2 V 316.2 H 1200 V 301.2 Z M 205.2,302.2 C 204.3,302.2 203.4,302.2 202.4,302.2 198.3,302.2 195.2,303.2 193.1,306.2 191,308.2 190,311.2 190,316.2 190,320.2 191,323.2 193.1,326.2 195.2,328.2 198.3,329.2 202.4,329.2 206.5,328.2 209.6,327.2 211.6,325.2 213.7,322.2 214.8,318.2 214.7,314.2 214.7,310.2 213.7,306.2 211.6,304.2 210,303.2 207.9,302.2 205.2,302.2 Z M 329.5,302.2 C 329.9,303.2 330,305.2 330,307.2 330,310.2 329.5,313.2 328.4,315.2 327.3,316.2 325.7,317.2 323.4,317.2 321.2,317.2 319.6,317.2 318.4,315.2 Z M 803.5,303.2 C 804.9,303.2 806,304.2 806.8,305.2 L 799.4,316.2 C 799.2,315.2 799.1,313.2 799.1,312.2 799,309.2 799.4,307.2 800.1,306.2 800.8,304.2 802,303.2 803.5,303.2 Z M 1173,303.2 1171,304.2 1167,306.2 V 308.2 L 1171,306.2 V 319.2 H 1167 V 322.2 L 1176,321.2 V 318.2 L 1173,319.2 Z M 1228,303.2 C 1229,304.2 1229,305.2 1229,307.2 1229,309.2 1229,311.2 1228,312.2 1228,313.2 1227,314.2 1226,314.2 1225,314.2 1224,314.2 1223,312.2 Z M 202.4,304.2 C 204.6,304.2 206.3,305.2 207.6,306.2 L 195.7,320.2 C 195.4,319.2 195.2,317.2 195.2,315.2 195.2,312.2 195.8,309.2 197,307.2 198.2,305.2 200,304.2 202.4,304.2 Z M 763.1,304.2 C 760.4,305.2 758.4,306.2 757.1,308.2 755.7,309.2 755,312.2 755,316.2 755.1,319.2 755.8,322.2 757.1,323.2 758.5,325.2 760.5,326.2 763.2,326.2 765.8,325.2 767.8,324.2 769.2,322.2 770.5,321.2 771.2,318.2 771.1,314.2 771.1,311.2 770.5,308.2 769.1,307.2 767.7,305.2 765.7,304.2 763.1,304.2 Z M 763.1,306.2 C 764.6,306.2 765.7,307.2 766.5,308.2 L 758.8,319.2 C 758.5,318.2 758.4,317.2 758.4,315.2 758.4,312.2 758.8,310.2 759.6,309.2 760.4,307.2 761.5,307.2 763.1,306.2 Z M 1142,306.2 1138,309.2 V 311.2 L 1142,308.2 V 322.2 H 1138 V 324.2 L 1148,323.2 V 321.2 L 1144,322.2 V 306.2 Z M 724.2,307.2 720.6,308.2 714.1,311.2 V 314.2 L 720.7,310.2 720.8,326.2 715.3,327.2 V 330.2 L 729.6,328.2 729.5,326.2 H 724.2 Z M 807.7,308.2 C 807.9,308.2 808,310.2 808,311.2 808.1,314.2 807.7,317.2 806.9,318.2 806.2,319.2 805.1,320.2 803.6,320.2 802,320.2 800.9,320.2 800.1,319.2 Z M 209.1,309.2 C 209.4,311.2 209.6,313.2 209.6,314.2 209.6,318.2 209,321.2 207.8,323.2 206.6,324.2 204.8,325.2 202.4,325.2 200,326.2 198.2,325.2 196.9,323.2 Z M 1113,309.2 1108,312.2 V 314.2 L 1113,311.2 V 325.2 H 1109 V 327.2 L 1119,326.2 V 324.2 H 1116 L 1115,309.2 Z M 677.2,311.2 670.5,314.2 V 317.2 L 677.2,314.2 677.3,330.2 671.6,331.2 671.7,333.2 686.4,332.2 V 329.2 L 680.9,330.2 680.8,311.2 Z M 767.5,311.2 C 767.7,312.2 767.8,313.2 767.8,315.2 767.8,318.2 767.4,320.2 766.7,321.2 765.9,323.2 764.7,323.2 763.2,324.2 761.6,324.2 760.4,323.2 759.6,322.2 Z M 1083,311.2 C 1081,311.2 1079,312.2 1078,314.2 1077,316.2 1077,318.2 1077,321.2 1077,324.2 1078,327.2 1079,328.2 1080,330.2 1081,330.2 1083,330.2 1085,330.2 1087,329.2 1088,327.2 1089,326.2 1089,323.2 1089,320.2 1089,317.2 1089,315.2 1087,313.2 1086,312.2 1085,311.2 1083,311.2 Z M 1083,313.2 C 1084,313.2 1085,314.2 1086,314.2 L 1080,324.2 V 321.2 315.2 C 1081,314.2 1082,313.2 1083,313.2 Z M 632.2,314.2 625.2,318.2 625.3,320.2 632.2,317.2 632.3,334.2 H 626.4 L 626.5,337.2 641.8,336.2 V 333.2 L 636,334.2 V 314.2 Z M 1052,314.2 C 1050,314.2 1048,315.2 1047,317.2 1046,319.2 1046,321.2 1046,324.2 1046,327.2 1046,330.2 1047,331.2 1048,333.2 1050,333.2 1052,333.2 1054,333.2 1056,332.2 1057,330.2 1058,329.2 1058,326.2 1058,323.2 1058,320.2 1058,318.2 1056,316.2 1055,314.2 1054,314.2 1052,314.2 Z M 1052,316.2 C 1053,316.2 1054,316.2 1054,317.2 L 1049,327.2 C 1048,326.2 1048,325.2 1048,324.2 1048,321.2 1049,319.2 1049,318.2 1050,317.2 1051,316.2 1052,316.2 Z M 1086,316.2 C 1086,318.2 1086,319.2 1087,320.2 1087,323.2 1086,325.2 1086,326.2 1085,327.2 1084,328.2 1083,328.2 1082,328.2 1081,328.2 1080,326.2 Z M 1019,317.2 1014,320.2 V 323.2 L 1019,320.2 V 334.2 H 1015 V 337.2 L 1026,336.2 V 333.2 L 1022,334.2 V 317.2 Z M 585.5,318.2 578.2,321.2 V 324.2 L 585.6,321.2 V 338.2 H 579.5 V 341.2 L 595.4,340.2 V 337.2 H 589.4 L 589.3,318.2 Z M 1055,319.2 V 323.2 329.2 C 1054,331.2 1053,331.2 1052,331.2 1051,331.2 1050,331.2 1049,329.2 Z M 986.1,320.2 981,323.2 V 326.2 L 986.1,323.2 986.2,337.2 981.9,338.2 V 340.2 L 993.1,339.2 V 337.2 H 988.9 L 988.8,320.2 Z M 954.7,323.2 951.9,324.2 946.6,327.2 V 329.2 L 951.9,326.2 952,341.2 H 947.5 V 343.2 L 959.1,342.2 V 340.2 H 954.8 Z M 1253,325.2 C 1253,325.2 1253,325.2 1252,325.2 1250,325.2 1249,326.2 1248,327.2 1247,329.2 1247,331.2 1247,333.2 1247,337.2 1247,339.2 1248,340.2 1249,341.2 1250,342.2 1252,342.2 1254,342.2 1255,341.2 1256,339.2 1257,338.2 1257,336.2 1257,332.2 1257,330.2 1256,328.2 1256,326.2 1255,325.2 1255,325.2 1253,325.2 Z M 917,326.2 C 914.6,326.2 912.9,327.2 911.7,329.2 910.5,331.2 909.9,334.2 909.9,337.2 910,341.2 910.6,343.2 911.8,345.2 913,346.2 914.7,347.2 917,347.2 919.4,346.2 921.2,345.2 922.3,344.2 923.5,342.2 924.1,339.2 924.1,336.2 924.1,333.2 923.5,330.2 922.3,328.2 921.1,327.2 919.3,326.2 917,326.2 Z M 1252,326.2 C 1253,326.2 1254,326.2 1254,327.2 L 1250,336.2 C 1249,335.2 1249,334.2 1249,333.2 1249,331.2 1249,330.2 1250,328.2 1250,327.2 1251,326.2 1252,326.2 Z M 1226,327.2 C 1224,328.2 1223,328.2 1222,330.2 1221,331.2 1220,334.2 1221,336.2 1221,340.2 1221,342.2 1222,343.2 1223,345.2 1224,345.2 1226,345.2 1228,345.2 1229,344.2 1230,342.2 1231,341.2 1231,338.2 1231,335.2 1231,332.2 1231,330.2 1230,329.2 1229,328.2 1228,327.2 1226,327.2 Z M 880.5,329.2 C 878.1,330.2 876.2,331.2 875,332.2 873.8,335.2 873.2,337.2 873.2,341.2 873.2,344.2 873.9,347.2 875.1,348.2 876.3,350.2 878.2,350.2 880.6,350.2 882.9,350.2 884.7,349.2 886,347.2 887.2,345.2 887.8,343.2 887.8,339.2 887.8,336.2 887.2,333.2 885.9,331.2 884.7,330.2 882.9,329.2 880.5,329.2 Z M 917,329.2 C 918.2,329.2 919.2,329.2 920,330.2 L 913.3,340.2 C 913.1,339.2 913,338.2 913,337.2 913,334.2 913.3,332.2 913.9,331.2 914.6,329.2 915.6,329.2 917,329.2 Z M 1226,329.2 C 1227,329.2 1227,329.2 1228,330.2 L 1223,339.2 V 336.2 C 1223,334.2 1223,332.2 1224,331.2 1224,330.2 1225,329.2 1226,329.2 Z M 1255,329.2 V 333.2 C 1255,335.2 1255,337.2 1254,338.2 1254,339.2 1253,340.2 1252,340.2 1251,340.2 1250,339.2 1250,338.2 Z M 880.5,332.2 C 881.8,332.2 882.8,332.2 883.6,333.2 L 876.6,344.2 C 876.4,343.2 876.3,342.2 876.3,341.2 876.3,338.2 876.6,335.2 877.3,334.2 878,333.2 879.1,332.2 880.5,332.2 Z M 920.8,332.2 C 921,333.2 921.1,335.2 921.2,336.2 921.2,339.2 920.8,341.2 920.2,343.2 919.5,344.2 918.4,345.2 917,345.2 915.7,345.2 914.7,344.2 914,343.2 Z M 1229,332.2 V 335.2 C 1229,338.2 1229,340.2 1228,341.2 1228,342.2 1227,343.2 1226,343.2 1225,343.2 1224,342.2 1224,341.2 Z M 380.3,333.2 C 376.7,334.2 374,335.2 372.1,337.2 370.3,339.2 369.4,342.2 369.4,347.2 369.4,351.2 370.3,354.2 372.2,356.2 374,357.2 376.8,358.2 380.4,358.2 384,358.2 386.7,356.2 388.5,354.2 390.3,352.2 391.2,349.2 391.2,345.2 391.2,341.2 390.3,338.2 388.4,336.2 386.6,334.2 383.9,333.2 380.3,333.2 Z M 1171,333.2 1167,336.2 V 338.2 L 1171,336.2 V 349.2 H 1167 V 351.2 L 1176,350.2 V 348.2 L 1173,349.2 V 333.2 Z M 884.4,335.2 C 884.6,337.2 884.7,338.2 884.7,340.2 884.7,342.2 884.4,344.2 883.7,346.2 883,347.2 882,348.2 880.5,348.2 879.1,348.2 878,348.2 877.3,346.2 Z M 381.7,336.2 C 383,336.2 384.1,337.2 384.9,338.2 L 374.4,351.2 C 374.1,349.2 374,348.2 374,346.2 374,343.2 374.5,340.2 375.5,338.2 376.6,337.2 378.2,336.2 380.3,336.2 380.8,336.2 381.2,336.2 381.7,336.2 Z M 1143,336.2 C 1141,336.2 1140,337.2 1139,339.2 1137,340.2 1137,343.2 1137,346.2 1137,349.2 1138,351.2 1139,353.2 1140,354.2 1141,355.2 1143,354.2 1145,354.2 1146,353.2 1147,352.2 1148,350.2 1148,348.2 1148,344.2 1148,341.2 1148,339.2 1147,338.2 1146,337.2 1145,336.2 1143,336.2 Z M 327.4,337.2 322.7,338.2 313.9,341.2 V 345.2 L 322.7,341.2 322.8,360.2 H 315.4 V 363.2 L 334.7,362.2 V 359.2 H 327.5 Z M 803.1,337.2 797.1,340.2 V 343.2 L 803.2,340.2 V 355.2 L 798.1,356.2 V 358.2 L 811.4,357.2 V 355.2 H 806.4 L 806.3,337.2 Z M 1143,338.2 C 1144,338.2 1144,338.2 1145,339.2 L 1140,349.2 V 345.2 340.2 C 1141,339.2 1142,338.2 1143,338.2 Z M 1113,339.2 C 1112,339.2 1110,340.2 1109,342.2 1108,344.2 1108,346.2 1108,349.2 1108,352.2 1108,355.2 1109,356.2 1110,357.2 1112,358.2 1113,358.2 1115,358.2 1117,357.2 1118,355.2 1119,353.2 1119,351.2 1119,348.2 1119,345.2 1119,342.2 1118,341.2 1117,340.2 1115,339.2 1113,339.2 Z M 386.2,341.2 C 386.5,342.2 386.7,343.2 386.7,345.2 386.7,349.2 386.2,351.2 385.1,353.2 384.1,355.2 382.5,355.2 380.4,356.2 378.2,356.2 376.6,355.2 375.5,354.2 Z M 762.7,341.2 756.4,344.2 V 347.2 L 762.7,343.2 762.8,359.2 757.5,360.2 V 363.2 L 771.3,361.2 771.2,358.2 766.1,359.2 766,341.2 Z M 1113,341.2 C 1115,341.2 1115,341.2 1116,342.2 L 1110,352.2 V 349.2 C 1110,346.2 1110,345.2 1111,344.2 1111,342.2 1112,341.2 1113,341.2 Z M 1146,341.2 V 345.2 C 1146,347.2 1146,349.2 1145,350.2 1145,351.2 1144,352.2 1143,352.2 1142,352.2 1141,352.2 1140,351.2 Z M 721.4,344.2 C 718.6,344.2 716.5,345.2 715.1,347.2 713.7,350.2 713,353.2 713,356.2 713,360.2 713.7,362.2 715.2,364.2 716.6,366.2 718.7,366.2 721.5,366.2 724.2,366.2 726.3,365.2 727.7,363.2 729.1,361.2 729.8,358.2 729.7,355.2 729.7,351.2 729,348.2 727.6,346.2 726.2,344.2 724.1,344.2 721.4,344.2 Z M 1117,345.2 V 348.2 C 1117,351.2 1116,352.2 1116,354.2 1115,355.2 1115,355.2 1113,356.2 1112,356.2 1111,355.2 1111,354.2 Z M 1052,346.2 1047,349.2 V 351.2 L 1052,349.2 V 363.2 H 1048 V 365.2 L 1058,364.2 V 362.2 H 1054 V 346.2 Z M 722.4,347.2 C 723.4,347.2 724.2,347.2 724.9,348.2 L 716.9,359.2 C 716.7,358.2 716.6,357.2 716.6,356.2 716.5,353.2 716.9,350.2 717.8,349.2 718.6,348.2 719.8,347.2 721.4,347.2 721.8,347.2 722.1,347.2 722.4,347.2 Z M 681,348.2 677.4,349.2 670.6,352.2 V 355.2 L 677.4,351.2 V 368.2 H 671.8 V 371.2 L 686.5,370.2 V 367.2 H 681 Z M 1020,349.2 C 1018,349.2 1016,350.2 1015,352.2 1014,354.2 1013,356.2 1014,359.2 1014,363.2 1014,365.2 1015,367.2 1016,368.2 1018,369.2 1020,369.2 1022,368.2 1024,367.2 1025,366.2 1026,364.2 1026,361.2 1026,358.2 1026,355.2 1026,353.2 1025,351.2 1024,350.2 1022,349.2 1020,349.2 Z M 725.9,350.2 C 726.1,352.2 726.3,353.2 726.3,355.2 726.3,358.2 725.9,360.2 725.1,362.2 724.3,363.2 723.1,364.2 721.5,364.2 719.8,364.2 718.6,363.2 717.7,362.2 Z M 1020,351.2 C 1021,351.2 1022,351.2 1023,352.2 L 1017,363.2 C 1016,361.2 1016,360.2 1016,359.2 1016,357.2 1017,355.2 1017,354.2 1018,352.2 1019,351.2 1020,351.2 Z M 636.1,352.2 632.4,353.2 625.4,356.2 V 359.2 L 632.4,355.2 V 372.2 L 626.6,373.2 V 376.2 L 641.9,374.2 V 371.2 L 636.2,372.2 Z M 986.7,353.2 C 984.5,353.2 982.9,354.2 981.8,356.2 980.7,357.2 980.1,360.2 980.1,363.2 980.1,367.2 980.7,369.2 981.8,371.2 983,372.2 984.6,373.2 986.8,372.2 989,372.2 990.6,371.2 991.7,370.2 992.8,368.2 993.4,365.2 993.4,362.2 993.4,358.2 992.8,356.2 991.6,355.2 990.5,353.2 988.9,353.2 986.7,353.2 Z M 1252,353.2 1248,356.2 V 358.2 L 1252,356.2 V 368.2 H 1249 V 371.2 L 1257,369.2 V 367.2 L 1254,368.2 V 353.2 Z M 987.5,355.2 C 988.3,355.2 989,355.2 989.5,356.2 L 983.2,366.2 C 983,365.2 982.9,364.2 982.9,363.2 982.9,360.2 983.2,359.2 983.8,357.2 984.5,356.2 985.4,355.2 986.7,355.2 987,355.2 987.3,355.2 987.5,355.2 Z M 1023,355.2 C 1024,356.2 1024,357.2 1024,358.2 1024,361.2 1023,363.2 1023,364.2 1022,365.2 1021,366.2 1020,366.2 1019,366.2 1018,366.2 1017,365.2 Z M 586.3,356.2 C 583.2,356.2 580.8,358.2 579.2,360.2 577.7,362.2 576.9,365.2 576.9,369.2 576.9,373.2 577.7,376.2 579.3,377.2 580.9,379.2 583.2,380.2 586.4,380.2 589.4,379.2 591.8,378.2 593.3,376.2 594.9,374.2 595.6,371.2 595.6,367.2 595.6,364.2 594.8,361.2 593.2,358.2 591.7,357.2 589.4,356.2 586.3,356.2 Z M 952.5,356.2 C 950.2,357.2 948.5,358.2 947.4,359.2 946.3,361.2 945.7,364.2 945.7,367.2 945.7,371.2 946.3,373.2 947.5,375.2 948.6,376.2 950.3,377.2 952.6,376.2 954.8,376.2 956.5,375.2 957.7,373.2 958.8,372.2 959.3,369.2 959.3,365.2 959.3,362.2 958.7,360.2 957.6,358.2 956.4,357.2 954.7,356.2 952.5,356.2 Z M 1227,357.2 C 1227,357.2 1227,357.2 1226,357.2 1224,357.2 1223,358.2 1222,359.2 1221,361.2 1221,363.2 1221,366.2 1221,369.2 1221,371.2 1222,372.2 1223,374.2 1224,374.2 1226,374.2 1228,374.2 1229,373.2 1230,371.2 1231,369.2 1231,367.2 1231,364.2 1231,362.2 1231,359.2 1230,358.2 1229,357.2 1229,357.2 1227,357.2 Z M 952.5,358.2 C 953.7,358.2 954.7,359.2 955.4,360.2 L 948.9,370.2 C 948.7,369.2 948.6,368.2 948.6,367.2 948.6,364.2 948.9,362.2 949.5,361.2 950.2,359.2 951.2,358.2 952.5,358.2 Z M 990.3,358.2 C 990.5,360.2 990.6,361.2 990.6,362.2 990.6,365.2 990.3,367.2 989.6,368.2 989.1,369.2 988.1,370.2 986.8,370.2 985.5,370.2 984.5,370.2 983.8,369.2 Z M 1226,358.2 C 1227,358.2 1228,358.2 1228,359.2 L 1223,369.2 V 365.2 C 1223,363.2 1223,361.2 1224,360.2 1224,359.2 1225,358.2 1226,358.2 Z M 586.3,359.2 C 587.9,359.2 589.2,359.2 590.2,360.2 L 581.3,372.2 C 581,371.2 580.9,370.2 580.9,369.2 580.9,365.2 581.3,363.2 582.1,362.2 583.1,360.2 584.4,359.2 586.3,359.2 Z M 917.1,360.2 C 914.8,360.2 913,361.2 911.9,363.2 910.7,365.2 910.1,368.2 910.1,371.2 910.1,375.2 910.7,377.2 911.9,379.2 913.1,380.2 914.9,381.2 917.2,381.2 919.6,380.2 921.3,379.2 922.5,377.2 923.7,376.2 924.2,373.2 924.2,369.2 924.2,366.2 923.6,364.2 922.4,362.2 921.2,361.2 919.5,360.2 917.1,360.2 Z M 1199,360.2 C 1197,360.2 1196,361.2 1195,362.2 1194,364.2 1194,366.2 1194,369.2 1194,372.2 1194,374.2 1195,375.2 1196,377.2 1197,378.2 1199,378.2 1201,377.2 1202,376.2 1203,374.2 1204,373.2 1204,371.2 1204,368.2 1204,365.2 1204,363.2 1203,361.2 1202,360.2 1201,360.2 1199,360.2 Z M 540,361.2 C 539.2,361.2 538.5,361.2 537.7,361.2 534.5,361.2 532.1,362.2 530.5,364.2 528.9,367.2 528.1,370.2 528.1,374.2 528.1,378.2 528.9,381.2 530.6,382.2 532.2,384.2 534.6,385.2 537.8,384.2 541,384.2 543.4,383.2 545,381.2 546.7,379.2 547.5,376.2 547.5,372.2 547.5,368.2 546.7,365.2 545,363.2 543.7,362.2 542.1,361.2 540,361.2 Z M 1199,361.2 C 1200,361.2 1201,362.2 1201,363.2 L 1196,372.2 V 369.2 C 1196,366.2 1196,364.2 1197,363.2 1197,362.2 1198,362.2 1199,361.2 Z M 917.1,362.2 C 918.4,362.2 919.4,362.2 920.1,364.2 L 913.4,374.2 C 913.2,373.2 913.1,372.2 913.1,370.2 913.1,368.2 913.4,366.2 914.1,365.2 914.7,363.2 915.8,362.2 917.1,362.2 Z M 956.2,362.2 C 956.4,363.2 956.5,364.2 956.5,366.2 956.5,368.2 956.2,371.2 955.5,372.2 954.9,373.2 953.9,374.2 952.6,374.2 951.3,374.2 950.2,374.2 949.5,373.2 Z M 1229,362.2 V 365.2 C 1229,367.2 1229,369.2 1228,370.2 1228,371.2 1227,372.2 1226,372.2 1225,372.2 1224,372.2 1224,371.2 Z M 537.8,363.2 C 539.5,363.2 540.9,364.2 541.9,365.2 L 532.5,377.2 C 532.3,376.2 532.1,375.2 532.1,373.2 532.1,370.2 532.6,368.2 533.5,366.2 534.5,364.2 535.9,364.2 537.8,363.2 Z M 591.3,363.2 C 591.6,364.2 591.7,366.2 591.7,368.2 591.8,371.2 591.3,373.2 590.4,375.2 589.5,376.2 588.2,377.2 586.4,378.2 584.6,378.2 583.2,377.2 582.2,375.2 Z M 1171,363.2 1167,366.2 V 368.2 L 1171,365.2 V 378.2 L 1168,379.2 V 381.2 L 1177,380.2 V 378.2 H 1173 V 363.2 Z M 487.4,365.2 C 484.1,365.2 481.5,367.2 479.9,369.2 478.2,371.2 477.3,375.2 477.3,379.2 477.3,383.2 478.2,386.2 479.9,387.2 481.6,389.2 484.1,390.2 487.5,390.2 490.8,389.2 493.3,388.2 494.9,386.2 496.6,384.2 497.4,381.2 497.4,377.2 497.4,373.2 496.6,370.2 494.9,367.2 493.2,366.2 490.7,365.2 487.4,365.2 Z M 1202,365.2 V 368.2 C 1202,371.2 1202,372.2 1201,374.2 1201,375.2 1200,375.2 1199,375.2 1198,376.2 1197,375.2 1197,374.2 Z M 921,366.2 C 921.2,367.2 921.3,368.2 921.3,370.2 921.3,372.2 921,375.2 920.3,376.2 919.6,377.2 918.6,378.2 917.2,378.2 915.9,378.2 914.8,378.2 914.1,377.2 Z M 1144,367.2 C 1144,367.2 1143,367.2 1143,367.2 1141,367.2 1140,368.2 1139,369.2 1138,371.2 1137,373.2 1137,376.2 1137,379.2 1138,381.2 1139,383.2 1140,384.2 1141,385.2 1143,385.2 1145,385.2 1146,384.2 1147,382.2 1148,380.2 1149,378.2 1149,375.2 1149,372.2 1148,370.2 1147,368.2 1146,367.2 1145,367.2 1144,367.2 Z M 543,367.2 C 543.3,369.2 543.4,370.2 543.4,372.2 543.4,375.2 543,378.2 542,380.2 541.2,381.2 539.7,382.2 537.8,382.2 535.9,383.2 534.5,382.2 533.5,380.2 Z M 487.4,368.2 C 489.1,368.2 490.6,368.2 491.7,369.2 L 481.9,382.2 C 481.7,381.2 481.6,380.2 481.5,378.2 481.5,375.2 482,372.2 483,371.2 484,369.2 485.4,368.2 487.4,368.2 Z M 842.3,368.2 836.5,371.2 V 374.2 L 842.4,371.2 V 387.2 H 837.5 L 837.6,389.2 850.4,388.2 V 386.2 H 845.6 L 845.5,368.2 Z M 1143,368.2 C 1144,368.2 1145,369.2 1145,370.2 L 1140,379.2 V 376.2 370.2 C 1141,369.2 1142,368.2 1143,368.2 Z M 438.6,370.2 434.2,371.2 426,374.2 426.1,378.2 434.3,374.2 434.4,392.2 427.5,393.2 V 396.2 L 445.4,394.2 V 391.2 H 438.6 Z M 1114,370.2 C 1112,370.2 1110,371.2 1109,373.2 1108,375.2 1108,377.2 1108,380.2 1108,383.2 1108,385.2 1109,387.2 1110,388.2 1112,389.2 1114,389.2 1116,389.2 1117,387.2 1118,385.2 1119,384.2 1119,382.2 1119,379.2 1119,376.2 1119,373.2 1118,372.2 1117,371.2 1115,370.2 1114,370.2 Z M 492.9,372.2 C 493.1,373.2 493.3,375.2 493.3,377.2 493.3,380.2 492.8,383.2 491.8,385.2 490.9,386.2 489.4,387.2 487.4,387.2 485.5,388.2 484,387.2 482.9,385.2 Z M 803.8,372.2 C 801.2,372.2 799.3,374.2 798,375.2 796.6,377.2 796,380.2 796,383.2 796,387.2 796.7,390.2 798,392.2 799.3,393.2 801.3,394.2 803.9,394.2 806.4,393.2 808.4,392.2 809.7,390.2 811,388.2 811.7,386.2 811.6,382.2 811.6,378.2 811,376.2 809.7,374.2 808.3,373.2 806.3,372.2 803.8,372.2 Z M 1114,372.2 C 1115,372.2 1115,372.2 1116,373.2 L 1110,383.2 V 380.2 C 1110,377.2 1110,375.2 1111,374.2 1111,373.2 1112,372.2 1114,372.2 Z M 1146,372.2 V 375.2 C 1146,378.2 1146,380.2 1145,381.2 1145,382.2 1144,383.2 1143,383.2 1142,383.2 1141,382.2 1140,381.2 Z M 803.8,374.2 C 805.2,374.2 806.3,375.2 807.1,376.2 L 799.7,387.2 C 799.5,386.2 799.4,384.2 799.4,383.2 799.3,380.2 799.7,378.2 800.4,377.2 801.1,375.2 802.3,374.2 803.8,374.2 Z M 1083,374.2 1078,377.2 V 379.2 L 1083,376.2 V 390.2 H 1079 V 393.2 L 1089,391.2 V 389.2 L 1085,390.2 V 374.2 Z M 380.4,375.2 C 376.8,375.2 374.1,376.2 372.2,379.2 370.4,381.2 369.5,385.2 369.5,389.2 369.5,393.2 370.4,396.2 372.3,398.2 374.1,400.2 376.9,401.2 380.5,400.2 384.1,400.2 386.8,399.2 388.6,396.2 390.4,394.2 391.3,391.2 391.3,387.2 391.3,383.2 390.4,380.2 388.5,377.2 386.7,375.2 384,375.2 380.4,375.2 Z M 1117,375.2 V 379.2 C 1117,381.2 1117,383.2 1116,385.2 1116,386.2 1115,386.2 1114,387.2 1113,387.2 1112,386.2 1111,385.2 Z M 766.2,376.2 762.8,377.2 756.6,380.2 V 383.2 L 762.8,380.2 762.9,396.2 H 757.6 L 757.7,398.2 771.4,397.2 V 395.2 H 766.3 Z M 1054,377.2 1052,378.2 1047,381.2 V 383.2 L 1052,380.2 V 394.2 L 1048,395.2 V 397.2 L 1058,395.2 V 393.2 L 1054,394.2 Z M 380.4,378.2 C 382.3,378.2 383.9,378.2 385,379.2 L 374.5,392.2 C 374.2,391.2 374.1,390.2 374.1,389.2 374.1,385.2 374.6,382.2 375.6,381.2 376.7,379.2 378.3,378.2 380.4,378.2 Z M 808,378.2 C 808.2,379.2 808.3,381.2 808.3,382.2 808.3,385.2 808,387.2 807.2,389.2 806.5,390.2 805.4,391.2 803.8,391.2 802.3,391.2 801.2,391.2 800.4,389.2 Z M 327.5,380.2 322.8,381.2 313.9,385.2 V 388.2 L 322.8,384.2 322.9,403.2 315.4,404.2 315.5,407.2 334.8,405.2 V 402.2 H 327.6 Z M 720.9,381.2 714.4,384.2 V 387.2 L 721,384.2 V 401.2 H 715.6 V 403.2 L 729.8,402.2 V 400.2 H 724.5 L 724.4,381.2 Z M 1022,381.2 1020,382.2 1015,385.2 V 387.2 L 1020,384.2 V 398.2 L 1016,399.2 V 401.2 L 1027,400.2 1026,397.2 1022,398.2 Z M 386.3,382.2 C 386.6,384.2 386.8,385.2 386.8,387.2 386.8,390.2 386.3,393.2 385.2,395.2 384.2,397.2 382.6,398.2 380.5,398.2 378.3,398.2 376.7,397.2 375.6,395.2 Z M 264.3,385.2 C 260.4,386.2 257.4,387.2 255.4,389.2 253.4,392.2 252.4,396.2 252.4,400.2 252.5,404.2 253.5,408.2 255.5,410.2 257.5,411.2 260.5,412.2 264.4,412.2 268.3,411.2 271.2,410.2 273.2,408.2 275.2,405.2 276.2,402.2 276.2,398.2 276.2,394.2 275.2,390.2 273.2,388.2 271.2,386.2 268.2,385.2 264.3,385.2 Z M 681.1,385.2 677.5,386.2 670.8,389.2 V 392.2 L 677.5,389.2 677.6,405.2 671.9,406.2 V 408.2 L 686.7,406.2 V 404.2 L 681.2,405.2 Z M 988.4,386.2 C 987.9,386.2 987.4,386.2 986.9,386.2 984.7,386.2 983,387.2 981.9,389.2 980.8,390.2 980.3,393.2 980.3,396.2 980.3,399.2 980.9,402.2 982,403.2 983.1,405.2 984.8,406.2 986.9,405.2 989.1,405.2 990.8,404.2 991.9,402.2 993,400.2 993.5,398.2 993.5,394.2 993.5,391.2 992.9,389.2 991.8,387.2 991,386.2 989.8,386.2 988.4,386.2 Z M 986.9,387.2 C 988.1,387.2 989,388.2 989.7,389.2 L 983.3,399.2 C 983.2,398.2 983.1,397.2 983.1,396.2 983,393.2 983.4,391.2 984,390.2 984.6,388.2 985.6,388.2 986.9,387.2 Z M 265.8,389.2 C 267.2,389.2 268.4,389.2 269.4,390.2 L 257.9,404.2 C 257.6,403.2 257.5,401.2 257.5,400.2 257.5,396.2 258,393.2 259.2,391.2 260.3,390.2 262,389.2 264.3,389.2 264.8,389.2 265.3,389.2 265.8,389.2 Z M 952.7,390.2 C 950.4,390.2 948.7,391.2 947.6,393.2 946.4,395.2 945.9,397.2 945.9,400.2 945.9,404.2 946.5,406.2 947.6,408.2 948.8,409.2 950.5,410.2 952.7,410.2 955,410.2 956.7,408.2 957.8,406.2 958.9,404.2 959.5,402.2 959.5,399.2 959.5,395.2 958.9,393.2 957.7,392.2 956.6,390.2 954.9,390.2 952.7,390.2 Z M 202.5,391.2 C 198.4,391.2 195.3,393.2 193.2,395.2 191.1,398.2 190.1,402.2 190.1,406.2 190.1,411.2 191.2,414.2 193.3,416.2 195.4,418.2 198.5,418.2 202.6,418.2 206.6,418.2 209.7,416.2 211.8,414.2 213.9,411.2 214.9,408.2 214.9,404.2 214.9,399.2 213.8,396.2 211.7,393.2 209.7,391.2 206.6,391.2 202.5,391.2 Z M 990.5,391.2 C 990.6,392.2 990.7,394.2 990.7,395.2 990.7,398.2 990.4,400.2 989.8,401.2 989.2,402.2 988.3,403.2 986.9,403.2 985.7,403.2 984.7,403.2 984,402.2 Z M 952.7,392.2 C 953.9,392.2 954.8,392.2 955.6,393.2 L 949,404.2 C 948.8,402.2 948.7,401.2 948.7,400.2 948.7,397.2 949,395.2 949.7,394.2 950.4,393.2 951.3,392.2 952.7,392.2 Z M 270.7,393.2 C 271.1,394.2 271.2,396.2 271.2,398.2 271.2,402.2 270.7,404.2 269.5,407.2 268.4,408.2 266.7,409.2 264.4,409.2 262.1,410.2 260.3,409.2 259.1,407.2 Z M 202.5,394.2 C 204.7,394.2 206.5,394.2 207.8,395.2 L 195.8,410.2 C 195.5,409.2 195.3,407.2 195.3,406.2 195.3,402.2 195.9,399.2 197.1,397.2 198.3,395.2 200.1,394.2 202.5,394.2 Z M 917.3,394.2 C 914.9,394.2 913.2,395.2 912,397.2 910.8,399.2 910.2,402.2 910.3,405.2 910.3,408.2 910.9,411.2 912.1,412.2 913.3,414.2 915,415.2 917.4,415.2 919.7,414.2 921.5,413.2 922.7,411.2 923.8,409.2 924.4,406.2 924.4,403.2 924.4,400.2 923.8,397.2 922.6,396.2 921.4,394.2 919.6,394.2 917.3,394.2 Z M 586.4,395.2 C 583.3,396.2 580.9,397.2 579.4,399.2 577.8,401.2 577,404.2 577,408.2 577,412.2 577.8,415.2 579.4,417.2 581,418.2 583.4,419.2 586.5,419.2 589.6,418.2 591.9,417.2 593.4,415.2 595,413.2 595.8,410.2 595.7,406.2 595.7,402.2 594.9,399.2 593.4,397.2 591.8,396.2 589.5,395.2 586.4,395.2 Z M 956.4,395.2 C 956.6,397.2 956.7,398.2 956.7,399.2 956.7,402.2 956.4,404.2 955.7,405.2 955,407.2 954.1,407.2 952.7,407.2 951.4,408.2 950.4,407.2 949.7,406.2 Z M 917.3,396.2 C 918.5,396.2 919.5,396.2 920.3,397.2 L 913.6,408.2 C 913.4,407.2 913.3,406.2 913.3,405.2 913.3,402.2 913.6,400.2 914.2,398.2 914.9,397.2 915.9,396.2 917.3,396.2 Z M 586.4,397.2 C 588.1,397.2 589.4,398.2 590.3,399.2 L 581.4,412.2 C 581.2,410.2 581,409.2 581,407.2 581,404.2 581.4,402.2 582.3,401.2 583.2,399.2 584.6,398.2 586.4,397.2 Z M 883.3,398.2 880.3,399.2 874.6,402.2 V 404.2 L 880.3,401.2 880.4,416.2 875.6,417.2 V 419.2 L 888,418.2 V 415.2 L 883.4,416.2 Z M 209.2,399.2 C 209.5,400.2 209.7,402.2 209.7,404.2 209.7,408.2 209.1,410.2 207.9,413.2 206.8,414.2 205,415.2 202.6,416.2 200.2,416.2 198.3,415.2 197,413.2 Z M 541.2,400.2 537.2,401.2 529.7,404.2 V 407.2 L 537.2,404.2 537.3,422.2 H 531 V 424.2 L 547.5,423.2 V 420.2 L 541.3,421.2 Z M 921.1,400.2 C 921.3,401.2 921.5,402.2 921.5,403.2 921.5,406.2 921.1,408.2 920.5,410.2 919.8,411.2 918.8,412.2 917.3,412.2 916,412.2 915,412.2 914.3,411.2 Z M 591.4,402.2 C 591.7,403.2 591.9,405.2 591.9,406.2 591.9,409.2 591.4,412.2 590.5,413.2 589.6,415.2 588.3,416.2 586.5,416.2 584.7,416.2 583.3,416.2 582.3,414.2 Z M 843,403.2 C 840.5,403.2 838.7,405.2 837.4,406.2 836.1,408.2 835.5,411.2 835.5,414.2 835.5,418.2 836.2,420.2 837.5,422.2 838.8,424.2 840.6,425.2 843.1,424.2 845.6,424.2 847.5,423.2 848.7,420.2 850,418.2 850.6,416.2 850.6,412.2 850.5,409.2 849.9,407.2 848.6,405.2 847.4,403.2 845.5,403.2 843,403.2 Z M 843,405.2 C 844.4,405.2 845.4,405.2 846.3,407.2 L 839,418.2 C 838.8,417.2 838.7,415.2 838.7,414.2 838.7,411.2 839,409.2 839.8,407.2 840.5,406.2 841.6,405.2 843,405.2 Z M 803.4,408.2 797.3,411.2 797.4,414.2 803.5,411.2 V 426.2 L 798.4,427.2 V 429.2 L 811.7,428.2 V 425.2 L 806.7,426.2 806.6,408.2 Z M 847.1,409.2 C 847.3,410.2 847.4,412.2 847.4,413.2 847.5,416.2 847.1,418.2 846.4,419.2 845.7,421.2 844.6,422.2 843.1,422.2 841.7,422.2 840.5,421.2 839.7,420.2 Z M 434.3,411.2 426.2,415.2 V 418.2 L 434.4,415.2 434.5,433.2 427.6,434.2 V 436.2 L 445.5,434.2 V 432.2 L 438.7,433.2 V 411.2 Z M 763,413.2 756.7,416.2 V 419.2 L 763,416.2 V 431.2 L 757.8,432.2 V 435.2 L 771.5,433.2 V 430.2 L 766.4,431.2 766.3,413.2 Z M 380.5,417.2 C 376.9,418.2 374.2,419.2 372.3,421.2 370.5,423.2 369.6,427.2 369.6,431.2 369.6,435.2 370.5,439.2 372.4,440.2 374.2,442.2 376.9,443.2 380.6,443.2 384.1,442.2 386.9,441.2 388.7,439.2 390.5,436.2 391.4,433.2 391.4,428.2 391.4,424.2 390.5,421.2 388.6,419.2 386.8,418.2 384.1,417.2 380.5,417.2 Z M 721.7,418.2 C 718.9,418.2 716.8,419.2 715.4,421.2 714,423.2 713.2,426.2 713.2,430.2 713.3,433.2 714,436.2 715.5,438.2 716.9,440.2 719,441.2 721.7,440.2 724.5,440.2 726.6,438.2 728,436.2 729.3,434.2 730,431.2 730,428.2 730,424.2 729.3,422.2 727.9,420.2 726.5,418.2 724.4,418.2 721.7,418.2 Z M 380.5,419.2 C 382.4,419.2 384,420.2 385.1,421.2 L 374.6,435.2 C 374.3,433.2 374.2,432.2 374.2,430.2 374.2,427.2 374.7,425.2 375.7,423.2 376.8,421.2 378.4,420.2 380.5,419.2 Z M 721.7,420.2 C 723.1,420.2 724.3,420.2 725.2,422.2 L 717.2,433.2 C 717,432.2 716.8,431.2 716.8,429.2 716.8,426.2 717.2,424.2 718,422.2 718.8,421.2 720,420.2 721.7,420.2 Z M 323.7,423.2 C 319.9,424.2 317.1,425.2 315.1,427.2 313.2,430.2 312.3,433.2 312.3,437.2 312.3,442.2 313.2,445.2 315.2,447.2 317.1,449.2 320,450.2 323.7,449.2 327.5,449.2 330.3,447.2 332.2,445.2 334.1,443.2 335,439.2 335,435.2 335,430.2 334.1,427.2 332.1,425.2 330.2,424.2 327.4,423.2 323.7,423.2 Z M 677.6,423.2 670.9,427.2 V 430.2 L 677.6,426.2 677.7,443.2 H 672 L 672.1,446.2 686.8,444.2 V 441.2 L 681.3,442.2 681.2,423.2 Z M 386.4,424.2 C 386.7,426.2 386.9,427.2 386.9,429.2 386.9,432.2 386.3,435.2 385.3,437.2 384.3,438.2 382.7,439.2 380.5,439.2 378.4,440.2 376.8,439.2 375.7,438.2 Z M 726.1,424.2 C 726.4,425.2 726.5,427.2 726.6,428.2 726.6,431.2 726.2,434.2 725.4,435.2 724.6,436.2 723.4,437.2 721.7,437.2 720.1,438.2 718.9,437.2 718,436.2 Z M 325.1,426.2 C 326.5,426.2 327.6,426.2 328.5,427.2 L 317.5,441.2 C 317.2,440.2 317.1,438.2 317.1,437.2 317.1,433.2 317.6,431.2 318.7,429.2 319.8,427.2 321.5,426.2 323.7,426.2 324.2,426.2 324.7,426.2 325.1,426.2 Z M 635.3,429.2 C 634.6,429.2 633.9,429.2 633.2,429.2 630.3,429.2 628,430.2 626.5,432.2 625,434.2 624.2,437.2 624.3,441.2 624.3,445.2 625,447.2 626.6,449.2 628.1,451.2 630.3,452.2 633.3,452.2 636.3,451.2 638.5,450.2 640,447.2 641.5,445.2 642.2,442.2 642.2,439.2 642.2,435.2 641.4,432.2 639.9,431.2 638.8,430.2 637.3,429.2 635.3,429.2 Z M 267.2,430.2 C 266.3,430.2 265.4,430.2 264.4,430.2 260.5,430.2 257.5,431.2 255.5,434.2 253.5,436.2 252.5,439.2 252.5,444.2 252.5,448.2 253.5,452.2 255.6,454.2 257.6,456.2 260.5,456.2 264.5,456.2 268.4,456.2 271.3,454.2 273.3,452.2 275.3,449.2 276.3,446.2 276.3,441.2 276.3,437.2 275.3,434.2 273.3,432.2 271.8,431.2 269.7,430.2 267.2,430.2 Z M 329.8,430.2 C 330.1,432.2 330.3,433.2 330.3,435.2 330.3,439.2 329.8,441.2 328.7,443.2 327.6,445.2 325.9,446.2 323.7,446.2 321.5,446.2 319.8,446.2 318.6,444.2 Z M 633.2,431.2 C 634.8,431.2 636.1,431.2 637.1,432.2 L 628.4,445.2 C 628.2,443.2 628,442.2 628,441.2 628,437.2 628.4,435.2 629.3,433.2 630.2,432.2 631.5,431.2 633.2,431.2 Z M 264.4,432.2 C 266.5,432.2 268.2,432.2 269.4,434.2 L 258,448.2 C 257.7,446.2 257.5,445.2 257.5,443.2 257.5,440.2 258.1,437.2 259.2,436.2 260.4,433.2 262.1,432.2 264.4,432.2 Z M 586.5,434.2 C 583.4,435.2 581.1,436.2 579.5,438.2 577.9,440.2 577.1,443.2 577.1,447.2 577.2,451.2 578,454.2 579.5,455.2 581.1,457.2 583.5,458.2 586.6,458.2 589.7,457.2 592,456.2 593.6,453.2 595.1,451.2 595.9,448.2 595.9,445.2 595.9,441.2 595.1,438.2 593.5,436.2 591.9,435.2 589.6,434.2 586.5,434.2 Z M 638.1,435.2 C 638.4,436.2 638.5,438.2 638.5,439.2 638.5,442.2 638.1,445.2 637.2,446.2 636.3,448.2 635,449.2 633.3,449.2 631.6,449.2 630.2,449.2 629.3,447.2 Z M 202.6,436.2 C 198.5,437.2 195.4,438.2 193.3,440.2 191.2,443.2 190.2,446.2 190.2,451.2 190.2,456.2 191.2,459.2 193.3,461.2 195.4,463.2 198.5,464.2 202.6,463.2 206.7,463.2 209.8,461.2 211.8,459.2 213.9,456.2 215,453.2 215,448.2 215,443.2 213.9,440.2 211.8,438.2 209.7,436.2 206.7,436.2 202.6,436.2 Z M 587.7,437.2 C 588.8,437.2 589.7,437.2 590.4,438.2 L 581.5,451.2 C 581.3,449.2 581.2,448.2 581.1,446.2 581.1,443.2 581.6,441.2 582.4,439.2 583.3,438.2 584.7,437.2 586.6,437.2 587,437.2 587.4,437.2 587.7,437.2 Z M 270.8,437.2 C 271.2,438.2 271.3,440.2 271.3,442.2 271.3,445.2 270.8,448.2 269.6,450.2 268.5,452.2 266.8,453.2 264.4,453.2 262.2,453.2 260.4,452.2 259.2,451.2 Z M 204.2,439.2 C 205.6,439.2 206.8,439.2 207.8,440.2 L 195.9,455.2 C 195.6,453.2 195.4,452.2 195.4,450.2 195.4,447.2 196,444.2 197.2,442.2 198.4,440.2 200.2,439.2 202.6,439.2 203.1,439.2 203.7,439.2 204.2,439.2 Z M 538,440.2 C 534.8,441.2 532.4,442.2 530.7,444.2 529.1,446.2 528.3,449.2 528.3,453.2 528.3,457.2 529.1,460.2 530.8,462.2 532.4,464.2 534.9,465.2 538.1,464.2 541.2,464.2 543.6,462.2 545.3,460.2 546.9,458.2 547.8,455.2 547.7,451.2 547.7,447.2 546.9,444.2 545.2,442.2 543.6,441.2 541.2,440.2 538,440.2 Z M 591.5,441.2 C 591.8,442.2 592,444.2 592,445.2 592,448.2 591.6,451.2 590.7,452.2 589.8,454.2 588.4,455.2 586.6,455.2 584.8,455.2 583.4,455.2 582.4,453.2 Z M 539.2,443.2 C 540.4,443.2 541.3,443.2 542.1,444.2 L 532.8,457.2 C 532.5,456.2 532.4,454.2 532.4,453.2 532.4,449.2 532.8,447.2 533.8,445.2 534.7,444.2 536.1,443.2 538,443.2 538.4,443.2 538.8,443.2 539.2,443.2 Z M 209.3,444.2 C 209.6,445.2 209.8,447.2 209.8,448.2 209.8,452.2 209.2,455.2 208,457.2 206.8,459.2 205,460.2 202.6,460.2 200.2,460.2 198.4,460.2 197.1,458.2 Z M 491.1,446.2 486.9,447.2 479.1,450.2 V 453.2 L 486.9,450.2 487,467.2 480.4,468.2 V 471.2 L 497.6,469.2 V 466.2 L 491.2,467.2 Z M 543.3,447.2 C 543.5,448.2 543.6,450.2 543.6,451.2 543.7,455.2 543.2,457.2 542.3,459.2 541.4,460.2 540,461.2 538,461.2 536.2,462.2 534.7,461.2 533.7,460.2 Z M 438.8,452.2 434.4,453.2 426.3,457.2 V 460.2 L 434.5,456.2 434.6,474.2 427.7,475.2 V 478.2 L 445.6,476.2 V 473.2 L 438.8,474.2 Z M 384.4,459.2 379.8,460.2 371.3,464.2 371.4,467.2 379.9,463.2 V 481.2 L 372.8,482.2 V 485.2 L 391.4,483.2 V 480.2 L 384.4,481.2 Z M 323.7,466.2 C 320,467.2 317.2,468.2 315.2,471.2 313.3,473.2 312.3,476.2 312.4,480.2 312.4,485.2 313.3,488.2 315.3,490.2 317.2,492.2 320,493.2 323.8,492.2 327.6,492.2 330.4,490.2 332.3,487.2 334.2,485.2 335.1,482.2 335.1,478.2 335.1,473.2 334.2,470.2 332.2,469.2 330.3,467.2 327.5,466.2 323.7,466.2 Z M 323.8,469.2 C 325.8,469.2 327.4,469.2 328.6,471.2 L 317.6,485.2 C 317.3,483.2 317.2,481.2 317.2,480.2 317.2,476.2 317.7,473.2 318.8,472.2 319.9,470.2 321.5,469.2 323.8,469.2 Z M 268.6,473.2 263.7,474.2 254.4,478.2 V 481.2 L 263.7,477.2 V 496.2 L 256,497.2 V 500.2 L 276.2,498.2 V 495.2 L 268.6,496.2 Z M 329.9,474.2 C 330.2,475.2 330.4,477.2 330.4,478.2 330.4,482.2 329.8,485.2 328.8,486.2 327.7,488.2 326,489.2 323.8,489.2 321.6,490.2 319.9,489.2 318.7,488.2 Z M 201.8,481.2 192.2,486.2 V 489.2 L 201.8,485.2 201.9,504.2 193.8,505.2 V 509.2 L 214.9,506.2 V 503.2 L 207,504.2 V 481.2 Z M 142.6,488.2 137.1,489.2 127,494.2 V 497.2 L 137.2,492.2 137.3,513.2 128.8,514.2 V 517.2 L 150.9,514.2 V 511.2 L 142.6,512.2 Z M 70,497.2 59,502.2 V 506.2 L 70,501.2 V 521.2 L 61,523.2 V 526.2 L 84,523.2 V 520.2 L 75,521.2 V 497.2 Z"
             id="path12455"
             inkscape:connector-curvature="0"
             clip-path="url(#clipPath13628)"
             inkscape:export-filename="/Users/dusadrian/binary-banner.png"
             inkscape:export-xdpi="95.95"
             inkscape:export-ydpi="95.95"
             transform="matrix(1.88,0,0,1.874,-48.82,85.18)" />
    </g>
</svg>
